<?xml version="1.0" encoding="UTF-8"?>
<svg version="1.1" xmlns="http://www.w3.org/2000/svg" width="612" height="408">
<path d="M0 0 C1.02351563 0.12117187 2.04703125 0.24234375 3.1015625 0.3671875 C16.98616545 2.42261211 30.15063205 9.25864146 42.77978516 15.04077148 C54.9627581 20.53629858 66.60962134 23.53279105 79.875 25.0625 C90.0332868 26.31179101 100.01971182 27.70182239 110 30 C110.98613281 30.18820313 111.97226562 30.37640625 112.98828125 30.5703125 C126.58122997 33.41492958 141.31130548 40.97975123 151.125 50.875 C153.5035891 54.83931516 154.08977721 58.45926163 153 63 C149.4817019 65.34553207 146.78612954 65.43385582 142.70703125 65.6328125 C141.41514893 65.70902832 140.1232666 65.78524414 138.79223633 65.86376953 C137.14892334 65.94997559 135.50561035 66.03618164 133.8125 66.125 C128.594375 66.41375 123.37625 66.7025 118 67 C128.56 67 139.12 67 150 67 C150.33 67.99 150.66 68.98 151 70 C148.9992078 73.26796059 147.57946062 75.37797304 143.9765625 76.796875 C141.64143785 77.33764071 139.38121482 77.71105142 137 78 C135.16888672 78.26683594 135.16888672 78.26683594 133.30078125 78.5390625 C125.71997245 79.36735637 118.05319956 79.1043055 110.4375 79.0625 C108.84049619 79.05747543 107.24349086 79.05291421 105.64648438 79.04882812 C101.76428467 79.03789728 97.88215949 79.02068533 94 79 C94.52268466 76.23723823 95.10869587 73.6739124 96 71 C96.81055083 64.58506911 96.12881825 59.57023786 92.69140625 54.046875 C88.5641113 49.05218088 83.40181452 45.92604864 77 45 C71.20904668 44.45049348 66.47597609 45.19758279 61.04296875 47.24609375 C59 48 59 48 56.80078125 48.41015625 C56.20652344 48.60480469 55.61226563 48.79945313 55 49 C54.67 49.99 54.34 50.98 54 52 C53.38125 52.5775 52.7625 53.155 52.125 53.75 C46.2930472 59.92500885 45.9301461 67.92488913 46 76 C39.01012849 76.10735298 32.06746757 76.03262068 25.08950806 75.64195251 C9.98046181 74.81369979 -5.12627873 74.88259835 -20.25146484 74.93133545 C-23.84602244 74.94177033 -27.44058771 74.94617515 -31.03515625 74.95117188 C-38.02345539 74.96173249 -45.01172467 74.97868043 -52 75 C-52.33 74.34 -52.66 73.68 -53 73 C-51.13198764 70.49656926 -50.13039283 70.02276229 -46.99731445 69.47583008 C-45.7980835 69.40775146 -44.59885254 69.33967285 -43.36328125 69.26953125 C-42.06455078 69.18896484 -40.76582031 69.10839844 -39.42773438 69.02539062 C-38.05600521 68.95412558 -36.68426015 68.88316594 -35.3125 68.8125 C-33.92896064 68.73109629 -32.54549502 68.64842861 -31.16210938 68.56445312 C-27.7754542 68.36384986 -24.38779597 68.18031475 -21 68 C-33.87 67.505 -33.87 67.505 -47 67 C-45.36921517 63.73843033 -43.65611322 60.80549723 -41.6875 57.75 C-41.06746094 56.77160156 -40.44742187 55.79320312 -39.80859375 54.78515625 C-38.75550461 53.16344446 -37.67626208 51.55712653 -36.53515625 49.99609375 C-31.79568788 43.32626441 -31.96133086 39.15287735 -30 30 C-1.62 30 26.76 30 56 30 C53.03 29.01 50.06 28.02 47 27 C45.16372847 26.21252319 43.34239784 25.38813795 41.546875 24.51171875 C40.60457031 24.05547119 39.66226563 23.59922363 38.69140625 23.12915039 C37.72074219 22.65340576 36.75007813 22.17766113 35.75 21.6875 C33.70324268 20.70027683 31.65636856 19.71329575 29.609375 18.7265625 C26.44620971 17.19319245 23.28886784 15.64966868 20.140625 14.0859375 C2.81220956 5.68036284 -13.69562602 4.7784028 -32.65234375 5.21484375 C-33.89628906 5.22902344 -35.14023437 5.24320313 -36.421875 5.2578125 C-38.10168457 5.29092529 -38.10168457 5.29092529 -39.81542969 5.32470703 C-43.44596647 4.9545281 -45.85449669 3.80293937 -49 2 C-49 1.34 -49 0.68 -49 0 C-32.22906385 -2.08704983 -16.77341376 -2.09185234 0 0 Z M93 37 C95.24545062 40.36817592 96.83865538 41.20900034 100.375 43.0625 C101.33148438 43.56910156 102.28796875 44.07570313 103.2734375 44.59765625 C104.17320312 45.06042969 105.07296875 45.52320313 106 46 C106.70769531 46.37769531 107.41539062 46.75539063 108.14453125 47.14453125 C115.43474017 50.50570126 125.12205856 49.09231963 133 49 C123.11025447 38.49625697 106.64679443 37.73697773 93 37 Z " fill="#0C52A4" transform="translate(318,148)"/>
<path d="M0 0 C1.02351563 0.12117187 2.04703125 0.24234375 3.1015625 0.3671875 C16.98616545 2.42261211 30.15063205 9.25864146 42.77978516 15.04077148 C54.9627581 20.53629858 66.60962134 23.53279105 79.875 25.0625 C90.0332868 26.31179101 100.01971182 27.70182239 110 30 C110.98613281 30.18820313 111.97226562 30.37640625 112.98828125 30.5703125 C126.58122997 33.41492958 141.31130548 40.97975123 151.125 50.875 C153.5035891 54.83931516 154.08977721 58.45926163 153 63 C149.4817019 65.34553207 146.78612954 65.43385582 142.70703125 65.6328125 C141.41514893 65.70902832 140.1232666 65.78524414 138.79223633 65.86376953 C137.14892334 65.94997559 135.50561035 66.03618164 133.8125 66.125 C128.594375 66.41375 123.37625 66.7025 118 67 C128.56 67 139.12 67 150 67 C150.33 67.99 150.66 68.98 151 70 C148.9992078 73.26796059 147.57946062 75.37797304 143.9765625 76.796875 C141.64143785 77.33764071 139.38121482 77.71105142 137 78 C135.16888672 78.26683594 135.16888672 78.26683594 133.30078125 78.5390625 C125.71997245 79.36735637 118.05319956 79.1043055 110.4375 79.0625 C108.84049619 79.05747543 107.24349086 79.05291421 105.64648438 79.04882812 C101.76428467 79.03789728 97.88215949 79.02068533 94 79 C94.52268466 76.23723823 95.10869587 73.6739124 96 71 C96.81055083 64.58506911 96.12881825 59.57023786 92.69140625 54.046875 C88.53834404 49.02099833 83.4174402 45.9942513 77 45 C77.598125 44.71125 78.19625 44.4225 78.8125 44.125 C81.19327792 42.95257974 81.19327792 42.95257974 84 41 C77.03609866 37.28591929 68.50123214 38.88870635 61 40 C61.495 39.01 61.495 39.01 62 38 C62.99 38 63.98 38 65 38 C65.495 37.01 65.495 37.01 66 36 C68.31 36 70.62 36 73 36 C72.67 35.34 72.34 34.68 72 34 C68.03172159 33.0079304 64.92702146 32.83250713 61 34 C60.01 34.66 59.02 35.32 58 36 C56.515 35.01 56.515 35.01 55 34 C53.328451 34.30791692 51.66194453 34.64386903 50 35 C47.5 34.625 47.5 34.625 45 34 C41.08224868 33.07648381 37.42830944 32.86264154 33.40551758 32.83886719 C32.09098099 32.82925964 30.7764444 32.8196521 29.42207336 32.80975342 C27.99622776 32.80490778 26.57038014 32.80062838 25.14453125 32.796875 C23.67673237 32.79111961 22.2089335 32.78536193 20.74113464 32.77960205 C17.67222749 32.76912365 14.60334633 32.76325891 11.53442383 32.75976562 C7.59653149 32.75425737 3.65898083 32.73016715 -0.27880383 32.70179367 C-3.30618821 32.68321079 -6.33348906 32.67796425 -9.36092567 32.67642975 C-10.81344809 32.67339779 -12.26596884 32.66535097 -13.71843529 32.65224457 C-15.74345477 32.63526104 -17.76861583 32.6388979 -19.79370117 32.64355469 C-20.94666183 32.63990906 -22.0996225 32.63626343 -23.28752136 32.63250732 C-24.18263931 32.75377991 -25.07775726 32.87505249 -26 33 C-27.9451 35.91765 -28.45276317 37.62537285 -29 41 C-29.66 40.67 -30.32 40.34 -31 40 C-30.67 36.7 -30.34 33.4 -30 30 C-1.62 30 26.76 30 56 30 C53.03 29.01 50.06 28.02 47 27 C45.16372847 26.21252319 43.34239784 25.38813795 41.546875 24.51171875 C40.60457031 24.05547119 39.66226563 23.59922363 38.69140625 23.12915039 C37.72074219 22.65340576 36.75007813 22.17766113 35.75 21.6875 C33.70324268 20.70027683 31.65636856 19.71329575 29.609375 18.7265625 C26.44620971 17.19319245 23.28886784 15.64966868 20.140625 14.0859375 C2.81220956 5.68036284 -13.69562602 4.7784028 -32.65234375 5.21484375 C-33.89628906 5.22902344 -35.14023437 5.24320313 -36.421875 5.2578125 C-38.10168457 5.29092529 -38.10168457 5.29092529 -39.81542969 5.32470703 C-43.44596647 4.9545281 -45.85449669 3.80293937 -49 2 C-49 1.34 -49 0.68 -49 0 C-32.22906385 -2.08704983 -16.77341376 -2.09185234 0 0 Z M93 37 C95.24545062 40.36817592 96.83865538 41.20900034 100.375 43.0625 C101.33148438 43.56910156 102.28796875 44.07570313 103.2734375 44.59765625 C104.17320312 45.06042969 105.07296875 45.52320313 106 46 C106.70769531 46.37769531 107.41539062 46.75539063 108.14453125 47.14453125 C115.43474017 50.50570126 125.12205856 49.09231963 133 49 C123.11025447 38.49625697 106.64679443 37.73697773 93 37 Z " fill="#065CAB" transform="translate(318,148)"/>
<path d="M0 0 C6.40672918 6.75303887 9.23520349 13.79014696 9.17431641 23.15209961 C8.59377019 32.25199976 3.88678565 42.15140221 -2.6875 48.4375 C-3.70786811 50.09177528 -4.70556364 51.76012742 -5.6875 53.4375 C-7.01872125 55.39083653 -8.37362151 57.32821545 -9.75 59.25 C-10.44222656 60.22582031 -11.13445312 61.20164062 -11.84765625 62.20703125 C-12.75837891 63.31111328 -12.75837891 63.31111328 -13.6875 64.4375 C-14.3475 64.4375 -15.0075 64.4375 -15.6875 64.4375 C-15.955625 65.015 -16.22375 65.5925 -16.5 66.1875 C-17.71679189 68.49300043 -18.99083879 70.45806192 -20.6875 72.4375 C-21.3475 72.4375 -22.0075 72.4375 -22.6875 72.4375 C-22.935 73.05625 -23.1825 73.675 -23.4375 74.3125 C-24.90797178 76.81230203 -26.10153076 77.27066022 -28.6875 78.4375 C-42.16001826 62.56429365 -55.36131592 42.98787991 -53.6875 21.4375 C-52.47151235 15.12956404 -49.7663293 10.35301223 -45.6875 5.4375 C-45.0275 5.4375 -44.3675 5.4375 -43.6875 5.4375 C-43.44 4.83035156 -43.1925 4.22320312 -42.9375 3.59765625 C-39.69311719 -2.0090428 -31.26895677 -4.49970165 -25.29296875 -6.12109375 C-15.81798369 -7.72630111 -8.04779756 -4.67895207 0 0 Z M-33 16.125 C-35.37066263 19.37368583 -36.46214365 22.41113313 -36.6875 26.4375 C-35.40363256 30.55939021 -34.05201279 33.69839077 -30.6875 36.4375 C-26.75860189 37.53376558 -22.90795772 37.71487676 -18.9375 36.8125 C-14.8718054 34.32790886 -11.18175672 31.05611167 -9.6875 26.4375 C-9.21165405 22.15488649 -9.40982465 19.96309976 -11.4375 16.125 C-14.40072293 12.58559483 -15.95473427 11.63002953 -20.5 11.125 C-25.34762073 11.60025693 -29.07831172 13.26322747 -33 16.125 Z " fill="#F2731C" transform="translate(274.6875,155.5625)"/>
<path d="M0 0 C-1.44126786 3.36295835 -3.20592655 5.62927102 -6 8 C-6.99 8 -7.98 8 -9 8 C-9.185625 9.8253125 -9.185625 9.8253125 -9.375 11.6875 C-9.6807432 14.19022652 -10.01531032 16.03636202 -11 18.375 C-14.47214033 27.48936837 -12.80392067 36.17655309 -8.9375 44.8125 C-8.59589844 45.52019531 -8.25429687 46.22789062 -7.90234375 46.95703125 C-6.99299997 49.01584854 -6.29465719 50.76513853 -6 53 C-6.66 53.99 -7.32 54.98 -8 56 C-8.33 58.64 -8.66 61.28 -9 64 C-40.02 64 -71.04 64 -103 64 C-103 63.01 -103 62.02 -103 61 C-85.67355299 59.79154628 -68.3566041 58.6856039 -51 58 C-51.65585189 54.39007621 -51.65585189 54.39007621 -53 51 C-53.25 48 -53.25 48 -53 45 C-52.01 44.34 -51.02 43.68 -50 43 C-50.7425 42.505 -50.7425 42.505 -51.5 42 C-53.43932047 39.41423937 -53.48002435 37.23901111 -53.3515625 34.0625 C-52.61655496 29.75045575 -50.28549866 26.93469831 -46.82421875 24.41796875 C-42.31818603 22.15560378 -37.54176757 21.78126514 -32.59375 21.0390625 C-28.44323807 19.83902318 -26.76586023 18.25091781 -24 15 C-23.67 14.67 -23.34 14.34 -23 14 C-27.59557334 14.96980924 -31.73831606 16.97848385 -36.02734375 18.84375 C-41.69042691 21.04647354 -46.81686854 21.12783379 -52.8125 21.0625 C-53.99489258 21.05573242 -53.99489258 21.05573242 -55.20117188 21.04882812 C-57.13414761 21.03711312 -59.06708393 21.01917998 -61 21 C-61 20.34 -61 19.68 -61 19 C-14.509375 0 -14.509375 0 0 0 Z " fill="#0C4696" transform="translate(230,156)"/>
<path d="M0 0 C6.97938241 0.6016709 11.54700829 1.76031191 16.875 6.625 C19.2938074 10.46663529 19.52883792 12.63041304 19.46875 17.046875 C19 19 19 19 16 21 C13.54334518 21.3077451 11.17323927 21.51252402 8.70703125 21.6328125 C6.76920776 21.74713623 6.76920776 21.74713623 4.79223633 21.86376953 C3.14892334 21.94997559 1.50561035 22.03618164 -0.1875 22.125 C-5.405625 22.41375 -10.62375 22.7025 -16 23 C-5.44 23 5.12 23 16 23 C16.495 24.485 16.495 24.485 17 26 C14.9992078 29.26796059 13.57946062 31.37797304 9.9765625 32.796875 C7.64143785 33.33764071 5.38121482 33.71105142 3 34 C1.77925781 34.17789063 0.55851562 34.35578125 -0.69921875 34.5390625 C-8.28002755 35.36735637 -15.94680044 35.1043055 -23.5625 35.0625 C-25.15950381 35.05747543 -26.75650914 35.05291421 -28.35351562 35.04882812 C-32.23571533 35.03789728 -36.11784051 35.02068533 -40 35 C-39.47731534 32.23723823 -38.89130413 29.6739124 -38 27 C-37.88207001 25.35720783 -37.82488326 23.70947306 -37.8125 22.0625 C-37.79123047 20.78052734 -37.79123047 20.78052734 -37.76953125 19.47265625 C-38.01580401 16.83044169 -38.80674192 15.33463537 -40 13 C-40 11.68 -40 10.36 -40 9 C-39.34 9 -38.68 9 -38 9 C-39.32 7.35 -40.64 5.7 -42 4 C-39.66666667 4 -37.33333333 4 -35 4 C-35 4.66 -35 5.32 -35 6 C-33.35 5.67 -31.7 5.34 -30 5 C-30 4.67 -30 4.34 -30 4 C-22.375 4.875 -22.375 4.875 -19 6 C-12.60845271 6.39226102 -6.33449992 5.81735483 0 5 C-0.495 4.01 -0.495 4.01 -1 3 C-0.67 2.01 -0.34 1.02 0 0 Z " fill="#0F3D8D" transform="translate(452,192)"/>
<path d="M0 0 C0.99 0.33 1.98 0.66 3 1 C2.01 2.485 2.01 2.485 1 4 C0.67 4.66 0.34 5.32 0 6 C0.66 6.66 1.32 7.32 2 8 C2.125 11.125 2.125 11.125 2 14 C7.58674804 14.02478762 13.1734638 14.04290152 18.76025391 14.05493164 C20.65934812 14.05994885 22.5584385 14.06676411 24.45751953 14.07543945 C27.19304352 14.08761963 29.92851626 14.09325454 32.6640625 14.09765625 C33.93003769 14.10539818 33.93003769 14.10539818 35.22158813 14.11329651 C39.61694044 14.1137113 43.65628883 13.73730429 48 13 C48.99 13.495 48.99 13.495 50 14 C54.65275976 14.3052622 54.65275976 14.3052622 59 13 C60.99960012 12.960008 63.00047242 12.95653201 65 13 C65 13.66 65 14.32 65 15 C65.99 14.67 66.98 14.34 68 14 C68.99 14.2784375 68.99 14.2784375 70 14.5625 C70.99 14.7790625 70.99 14.7790625 72 15 C72.99 14.34 73.98 13.68 75 13 C75.16666667 10 75.16666667 10 75 7 C75.33 6.34 75.66 5.68 76 5 C76.66 5 77.32 5 78 5 C78 4.34 78 3.68 78 3 C80.64738916 1.5393715 81.89448334 1 85 1 C84.37234228 7.52764024 84.37234228 7.52764024 82.53125 9.86328125 C80.60749774 12.54770086 80.29241976 14.6847105 79.8125 17.9375 C79.65394531 18.95714844 79.49539063 19.97679687 79.33203125 21.02734375 C79.03140265 23.71885396 78.93524902 26.29540149 79 29 C72.01012849 29.10735298 65.06746757 29.03262068 58.08950806 28.64195251 C42.98046181 27.81369979 27.87372127 27.88259835 12.74853516 27.93133545 C9.15397756 27.94177033 5.55941229 27.94617515 1.96484375 27.95117188 C-5.02345539 27.96173249 -12.01172467 27.97868043 -19 28 C-19.33 27.34 -19.66 26.68 -20 26 C-18.13198764 23.49656926 -17.13039283 23.02276229 -13.99731445 22.47583008 C-12.7980835 22.40775146 -11.59885254 22.33967285 -10.36328125 22.26953125 C-9.06455078 22.18896484 -7.76582031 22.10839844 -6.42773438 22.02539062 C-5.05600521 21.95412558 -3.68426015 21.88316594 -2.3125 21.8125 C-0.92896064 21.73109629 0.45450498 21.64842861 1.83789062 21.56445312 C5.2245458 21.36384986 8.61220403 21.18031475 12 21 C-0.87 20.505 -0.87 20.505 -14 20 C-10.32760315 12.65520631 -6.21628743 5.46279805 0 0 Z " fill="#0E2663" transform="translate(285,195)"/>
<path d="M0 0 C4.01423819 2.38189237 6.7487723 4.63486044 8.75 8.9375 C10.34792588 15.99500597 10.060482 21.22244967 6.5703125 27.62109375 C5.5 29.25 5.5 29.25 3.5 31.25 C1.06255103 31.42488254 -1.2593608 31.48177405 -3.6953125 31.4453125 C-4.40275604 31.4424826 -5.11019958 31.43965271 -5.83908081 31.43673706 C-8.1012251 31.42553137 -10.36297515 31.40042679 -12.625 31.375 C-14.15754637 31.36497067 -15.69009894 31.35584474 -17.22265625 31.34765625 C-20.98192301 31.32559086 -24.74089464 31.29105896 -28.5 31.25 C-29.16559784 30.00557212 -29.82120417 28.75579739 -30.47265625 27.50390625 C-30.83883057 26.8085376 -31.20500488 26.11316895 -31.58227539 25.39672852 C-33.61569766 20.64017571 -32.9083887 16.49666024 -31.3125 11.625 C-28.22326306 5.87262776 -24.8668922 1.64285509 -18.87109375 -1.0546875 C-12.60960222 -2.89084152 -5.93735205 -2.79144164 0 0 Z " fill="#0E3674" transform="translate(400.5,197.75)"/>
<path d="M0 0 C1.99773757 1.00451211 3.99693256 2.00615855 6 3 C6 3.66 6 4.32 6 5 C-0.63044384 5.02575485 -7.2608744 5.04303285 -13.89135742 5.05493164 C-16.13810712 5.05990197 -18.38485368 5.06668056 -20.6315918 5.07543945 C-34.45878374 5.12792042 -48.20112283 4.91854439 -62 4 C-62.25595947 3.13004395 -62.51191895 2.26008789 -62.77563477 1.36376953 C-64.62807119 -4.83482497 -66.10859223 -8.78795442 -71 -13 C-71 -13.99 -71 -14.98 -71 -16 C-45.72182011 -20.49389865 -21.98682587 -11.54739231 0 0 Z " fill="#0E3C79" transform="translate(350,170)"/>
<path d="M0 0 C6.94242259 7.31768868 8.87935765 14.25332695 8.79418945 24.04199219 C8.65683207 27.66395966 8.36651082 29.35648377 6.3125 32.4375 C5.9825 25.8375 5.6525 19.2375 5.3125 12.4375 C-1.18343563 10.94853868 -1.18343563 10.94853868 -5.125 12.6875 C-8.08959324 15.8690147 -8.01321885 16.47211222 -7.9375 20.625 C-7.85242188 22.06359375 -7.85242188 22.06359375 -7.765625 23.53125 C-7.65207304 27.75538275 -8.61927374 31.3648874 -9.6875 35.4375 C-12.3275 36.0975 -14.9675 36.7575 -17.6875 37.4375 C-16.875 35.5 -16.875 35.5 -15.6875 33.4375 C-14.6975 33.1075 -13.7075 32.7775 -12.6875 32.4375 C-10.70715169 28.05988794 -10.25405167 24.20543165 -10.6875 19.4375 C-12.38074113 15.62770746 -13.83586311 13.95039521 -17.6875 12.4375 C-22.84686969 12.24367752 -27.64204666 13.10595019 -31.6875 16.4375 C-35.16955413 20.66570858 -35.35429937 25.16373832 -35.6875 30.4375 C-36.3475 30.1075 -37.0075 29.7775 -37.6875 29.4375 C-37.7145043 27.97926788 -37.73389787 26.52089325 -37.75 25.0625 C-37.76160156 24.25039062 -37.77320313 23.43828125 -37.78515625 22.6015625 C-37.6875 20.4375 -37.6875 20.4375 -36.6875 18.4375 C-37.3475 18.1075 -38.0075 17.7775 -38.6875 17.4375 C-38.0275 15.7875 -37.3675 14.1375 -36.6875 12.4375 C-43.06660711 13.46392453 -43.06660711 13.46392453 -47.984375 17.16015625 C-48.87649394 19.2747781 -48.87649394 19.2747781 -49.6875 22.4375 C-50.0175 22.7675 -50.3475 23.0975 -50.6875 23.4375 C-50.92403523 25.96346259 -51.10923692 28.46857207 -51.25 31 C-51.29318359 31.71091797 -51.33636719 32.42183594 -51.38085938 33.15429688 C-51.48721777 34.91511912 -51.58788846 36.6762832 -51.6875 38.4375 C-55.16834559 32.71005288 -54.41139554 25.20967444 -53.1875 18.83203125 C-51.61297316 13.63430346 -49.14821313 9.60810301 -45.6875 5.4375 C-45.0275 5.4375 -44.3675 5.4375 -43.6875 5.4375 C-43.44 4.83035156 -43.1925 4.22320312 -42.9375 3.59765625 C-39.69311719 -2.0090428 -31.26895677 -4.49970165 -25.29296875 -6.12109375 C-15.81798369 -7.72630111 -8.04779756 -4.67895207 0 0 Z " fill="#FBAF39" transform="translate(274.6875,155.5625)"/>
<path d="M0 0 C1.258125 -0.020625 2.51625 -0.04125 3.8125 -0.0625 C4.52019531 -0.07410156 5.22789062 -0.08570313 5.95703125 -0.09765625 C8 0 8 0 11 1 C16.14943278 1.4017339 16.14943278 1.4017339 21 0 C22.8331184 0.47525292 24.6653473 0.95428303 26.4921875 1.453125 C31.25967674 2.4927644 36.13913217 2.69214504 41 3 C41 3.33 41 3.66 41 4 C30.605 4.495 30.605 4.495 20 5 C30.56 5 41.12 5 52 5 C52.495 6.485 52.495 6.485 53 8 C50.9992078 11.26796059 49.57946062 13.37797304 45.9765625 14.796875 C43.64143785 15.33764071 41.38121482 15.71105142 39 16 C37.16888672 16.26683594 37.16888672 16.26683594 35.30078125 16.5390625 C27.71997245 17.36735637 20.05319956 17.1043055 12.4375 17.0625 C10.84049619 17.05747543 9.24349086 17.05291421 7.64648438 17.04882812 C3.76428467 17.03789728 -0.11784051 17.02068533 -4 17 C-3.125 12.2265625 -3.125 12.2265625 -2 10.1875 C-0.48730941 6.87848933 -0.36116775 3.61167752 0 0 Z " fill="#1A2F66" transform="translate(416,210)"/>
<path d="M0 0 C-1.44126786 3.36295835 -3.20592655 5.62927102 -6 8 C-6.99 8 -7.98 8 -9 8 C-9.33 10.64 -9.66 13.28 -10 16 C-10.1546875 15.0409375 -10.1546875 15.0409375 -10.3125 14.0625 C-10.539375 13.381875 -10.76625 12.70125 -11 12 C-11.99 11.67 -12.98 11.34 -14 11 C-14.33 12.32 -14.66 13.64 -15 15 C-15.495 14.01 -15.495 14.01 -16 13 C-19.35632915 13.99782758 -20.73951528 14.61857595 -22.75 17.5625 C-23.36875 18.7690625 -23.36875 18.7690625 -24 20 C-24.495 20.495 -24.495 20.495 -25 21 C-23.02 21 -21.04 21 -19 21 C-19 22.65 -19 24.3 -19 26 C-19.495 25.01 -19.495 25.01 -20 24 C-21.98 25.32 -23.96 26.64 -26 28 C-26.66 27.34 -27.32 26.68 -28 26 C-29.9267795 26.01494748 -29.9267795 26.01494748 -32 26.4375 C-35.79836512 27.10081744 -35.79836512 27.10081744 -38 26 C-38 26.66 -38 27.32 -38 28 C-41.73486879 28.5745952 -45.21293268 29 -49 29 C-50.00496852 32.01490557 -50.10335303 34.04181692 -50.0625 37.1875 C-50.04896484 38.53908203 -50.04896484 38.53908203 -50.03515625 39.91796875 C-50.02355469 40.60503906 -50.01195312 41.29210937 -50 42 C-50.99 41.34 -51.98 40.68 -53 40 C-53.55392797 35.25204597 -53.49260517 32.9669657 -51.3125 28.6875 C-46.09486324 22.62375998 -40.2010053 22.1801508 -32.59375 21.0390625 C-28.44323807 19.83902318 -26.76586023 18.25091781 -24 15 C-23.67 14.67 -23.34 14.34 -23 14 C-27.59557334 14.96980924 -31.73831606 16.97848385 -36.02734375 18.84375 C-41.69042691 21.04647354 -46.81686854 21.12783379 -52.8125 21.0625 C-53.99489258 21.05573242 -53.99489258 21.05573242 -55.20117188 21.04882812 C-57.13414761 21.03711312 -59.06708393 21.01917998 -61 21 C-61 20.34 -61 19.68 -61 19 C-14.509375 0 -14.509375 0 0 0 Z " fill="#0C61A9" transform="translate(230,156)"/>
<path d="M0 0 C23.76 0 47.52 0 72 0 C72 0.66 72 1.32 72 2 C68.04 2.33 64.08 2.66 60 3 C60.99 5.97 60.99 5.97 62 9 C35.6 9 9.2 9 -18 9 C-18.33 8.34 -18.66 7.68 -19 7 C-17.13198764 4.49656926 -16.13039283 4.02276229 -12.99731445 3.47583008 C-11.7980835 3.40775146 -10.59885254 3.33967285 -9.36328125 3.26953125 C-8.06455078 3.18896484 -6.76582031 3.10839844 -5.42773438 3.02539062 C-4.05600521 2.95412558 -2.68426015 2.88316594 -1.3125 2.8125 C0.07103936 2.73109629 1.45450498 2.64842861 2.83789062 2.56445312 C6.2245458 2.36384986 9.61220403 2.18031475 13 2 C8.71 1.67 4.42 1.34 0 1 C0 0.67 0 0.34 0 0 Z " fill="#445991" transform="translate(284,214)"/>
<path d="M0 0 C1.02351563 0.12117187 2.04703125 0.24234375 3.1015625 0.3671875 C15.54730139 2.20960806 27.52763427 8.08947982 39 13 C36 15 36 15 34 15 C34 14.34 34 13.68 34 13 C32.68 13 31.36 13 30 13 C30 13.66 30 14.32 30 15 C29.34 15 28.68 15 28 15 C28 15.66 28 16.32 28 17 C25.44820864 15.99586549 22.92052443 14.96470421 20.4140625 13.8515625 C2.70880402 6.06521633 -13.52789577 4.77454114 -32.65234375 5.21484375 C-33.89628906 5.22902344 -35.14023437 5.24320313 -36.421875 5.2578125 C-38.10168457 5.29092529 -38.10168457 5.29092529 -39.81542969 5.32470703 C-43.44596647 4.9545281 -45.85449669 3.80293937 -49 2 C-49 1.34 -49 0.68 -49 0 C-32.22906385 -2.08704983 -16.77341376 -2.09185234 0 0 Z " fill="#117EBB" transform="translate(318,148)"/>
<path d="M0 0 C14.27482875 -0.04658332 28.54963907 -0.08200023 42.82452869 -0.10362434 C49.45474645 -0.11400899 56.0848977 -0.12806968 62.71508789 -0.15087891 C69.12771296 -0.17279863 75.54028794 -0.18460849 81.95294762 -0.18975449 C84.38503494 -0.19341621 86.81711989 -0.20056529 89.24918556 -0.21146011 C120.6707402 -0.34646811 120.6707402 -0.34646811 136 3 C135.0409375 3.1546875 135.0409375 3.1546875 134.0625 3.3125 C133.381875 3.539375 132.70125 3.76625 132 4 C131.67 4.99 131.34 5.98 131 7 C128.33333333 6.33333333 125.66666667 5.66666667 123 5 C122.34 6.98 121.68 8.96 121 11 C120.24976563 10.855625 119.49953125 10.71125 118.7265625 10.5625 C109.18961511 8.8328773 100.57199654 8.58192644 91 10 C91.33 9.34 91.66 8.68 92 8 C92.99 8 93.98 8 95 8 C95.33 7.34 95.66 6.68 96 6 C98.31 6 100.62 6 103 6 C102.505 5.01 102.505 5.01 102 4 C98.03172159 3.0079304 94.92702146 2.83250713 91 4 C90.01 4.66 89.02 5.32 88 6 C87.01 5.34 86.02 4.68 85 4 C83.328451 4.30791692 81.66194453 4.64386903 80 5 C77.5 4.625 77.5 4.625 75 4 C71.08224868 3.07648381 67.42830944 2.86264154 63.40551758 2.83886719 C61.43371269 2.82445587 61.43371269 2.82445587 59.42207336 2.80975342 C57.99622776 2.80490778 56.57038014 2.80062838 55.14453125 2.796875 C53.67673237 2.79111961 52.2089335 2.78536193 50.74113464 2.77960205 C47.67222749 2.76912365 44.60334633 2.76325891 41.53442383 2.75976562 C37.59653149 2.75425737 33.65898083 2.73016715 29.72119617 2.70179367 C26.69381179 2.68321079 23.66651094 2.67796425 20.63907433 2.67642975 C19.18655191 2.67339779 17.73403116 2.66535097 16.28156471 2.65224457 C14.25654523 2.63526104 12.23138417 2.6388979 10.20629883 2.64355469 C9.05333817 2.63990906 7.9003775 2.63626343 6.71247864 2.63250732 C5.81736069 2.75377991 4.92224274 2.87505249 4 3 C2.0549 5.91765 1.54723683 7.62537285 1 11 C0.34 10.67 -0.32 10.34 -1 10 C-0.67 6.7 -0.34 3.4 0 0 Z " fill="#0870BD" transform="translate(288,178)"/>
<path d="M0 0 C0 0.66 0 1.32 0 2 C0.598125 2.12375 1.19625 2.2475 1.8125 2.375 C4 3 4 3 7 5 C7 5.66 7 6.32 7 7 C-3.75260849 7.17698686 -14.50532505 7.34294115 -25.25831985 7.49477577 C-30.25125511 7.5656246 -35.2440729 7.6402861 -40.23681641 7.72363281 C-45.05423822 7.80391296 -49.87171141 7.87421467 -54.68938446 7.93757248 C-56.52825036 7.96351465 -58.36706899 7.99306436 -60.20581818 8.02626419 C-62.77943309 8.07211888 -65.35291674 8.105194 -67.92675781 8.13525391 C-69.0693531 8.16006584 -69.0693531 8.16006584 -70.23503113 8.18537903 C-73.99219438 8.21561696 -76.81520009 8.11169613 -80 6 C-76.77388565 4.92462855 -73.96510118 4.62836458 -70.578125 4.31640625 C-69.93375488 4.25656555 -69.28938477 4.19672485 -68.62548828 4.1350708 C-66.50070938 3.93968374 -64.37544111 3.75053893 -62.25 3.5625 C-61.52180054 3.49719086 -60.79360107 3.43188171 -60.04333496 3.36459351 C-49.12058036 2.38846363 -38.19233263 1.53613183 -27.25 0.8125 C-26.01024414 0.7287915 -24.77048828 0.64508301 -23.49316406 0.55883789 C-15.65183754 0.06516804 -7.85604772 -0.09578549 0 0 Z " fill="#253F77" transform="translate(224,221)"/>
<path d="M0 0 C-0.185625 0.763125 -0.37125 1.52625 -0.5625 2.3125 C-1.22819173 5.08967375 -1.22819173 5.08967375 0 8 C-0.05467 9.45968892 -0.14062981 10.91838793 -0.25 12.375 C-0.29887539 16.13229529 -0.16316623 16.78697743 2.25 19.9375 C7.53592301 23.90194226 10.446474 24.21845087 17 24 C17 24.66 17 25.32 17 26 C8.29841489 27.47484493 8.29841489 27.47484493 4 25 C3.67 24.34 3.34 23.68 3 23 C-0.35433109 23.94933899 -3.69246505 24.89748835 -7 26 C-7.33 26.66 -7.66 27.32 -8 28 C-12 28 -12 28 -15 26 C-15.27668225 23.40573202 -15.37295242 21.08736354 -15.3125 18.5 C-15.31572266 17.81035156 -15.31894531 17.12070313 -15.32226562 16.41015625 C-15.26712592 11.26712592 -15.26712592 11.26712592 -13 9 C-12.79375 8.030625 -12.5875 7.06125 -12.375 6.0625 C-10.82520668 2.6106876 -10.41462247 2.40579268 -7.0625 1.125 C-4.48169048 0.28563391 -2.75650167 0 0 0 Z " fill="#F7881E" transform="translate(238,168)"/>
<path d="M0 0 C1.32 0 2.64 0 4 0 C4 0.66 4 1.32 4 2 C4.928125 1.731875 5.85625 1.46375 6.8125 1.1875 C11.52814378 0.50708647 14.79315834 2.5243577 18.93359375 4.5859375 C24.0972093 6.96712072 29.54092412 8.4464633 35 10 C35 10.66 35 11.32 35 12 C40.61 12.66 46.22 13.32 52 14 C52 14.99 52 15.98 52 17 C47.854303 17.0879568 43.70884988 17.14071153 39.5625 17.1875 C38.39783203 17.21263672 37.23316406 17.23777344 36.03320312 17.26367188 C24.55727162 17.36065158 16.88985751 14.22491475 6.9375 8.8125 C6.07189453 8.34908203 5.20628906 7.88566406 4.31445312 7.40820312 C2.20618308 6.27835675 0.10156302 5.1422583 -2 4 C-2 3.34 -2 2.68 -2 2 C-1.34 2 -0.68 2 0 2 C0 1.34 0 0.68 0 0 Z " fill="#206AAF" transform="translate(348,161)"/>
<path d="M0 0 C3 2 3 2 4 5 C6.10405391 5.16808419 8.20824758 5.33441948 10.3125 5.5 C11.48425781 5.5928125 12.65601563 5.685625 13.86328125 5.78125 C18.07659578 6.19877248 18.07659578 6.19877248 22 5 C24.33293334 4.95679753 26.6670134 4.95977609 29 5 C30.32 5 31.64 5 33 5 C33 5.66 33 6.32 33 7 C29.30148687 8.23283771 25.89068897 8.13161347 22.0402832 8.11352539 C20.82530655 8.11374443 20.82530655 8.11374443 19.58578491 8.1139679 C16.90742315 8.113271 14.22913087 8.10548903 11.55078125 8.09765625 C9.69418882 8.09579128 7.8375959 8.09436775 5.98100281 8.09336853 C1.09344119 8.0895496 -3.79409074 8.07972461 -8.68164062 8.06866455 C-13.66861571 8.05843704 -18.65559558 8.05386803 -23.64257812 8.04882812 C-33.42839847 8.03810181 -43.21419676 8.02103284 -53 8 C-53 7.01 -53 6.02 -53 5 C-35.67355299 3.79154628 -18.3566041 2.6856039 -1 2 C-0.67 1.34 -0.34 0.68 0 0 Z " fill="#5B75A0" transform="translate(180,212)"/>
<path d="M0 0 C1.65 0.33 3.3 0.66 5 1 C5 1.66 5 2.32 5 3 C6.65 3 8.3 3 10 3 C10 3.99 10 4.98 10 6 C10.89138672 5.89558594 10.89138672 5.89558594 11.80078125 5.7890625 C19.58296138 5.28073969 24.53103172 7.86773129 31 12 C31 12.66 31 13.32 31 14 C11.2 13.505 11.2 13.505 -9 13 C-9 12.34 -9 11.68 -9 11 C-9.66 10.67 -10.32 10.34 -11 10 C-10.67 9.34 -10.34 8.68 -10 8 C-9.34 8 -8.68 8 -8 8 C-7.67 7.01 -7.34 6.02 -7 5 C-3.77208445 2.8480563 -2.71599191 2.79913557 1 3 C0.67 2.01 0.34 1.02 0 0 Z " fill="#0E275C" transform="translate(325,161)"/>
<path d="M0 0 C-0.62765772 6.52764024 -0.62765772 6.52764024 -2.46875 8.86328125 C-4.39250226 11.54770086 -4.70758024 13.6847105 -5.1875 16.9375 C-5.34605469 17.95714844 -5.50460937 18.97679687 -5.66796875 20.02734375 C-6.09250404 23.32965957 -6.09250404 23.32965957 -6 28 C-10.62 28 -15.24 28 -20 28 C-19.67 27.34 -19.34 26.68 -19 26 C-18.01 26 -17.02 26 -16 26 C-16.495 25.01 -16.495 25.01 -17 24 C-14.36 24 -11.72 24 -9 24 C-8.67 21.69 -8.34 19.38 -8 17 C-8.66 17.66 -9.32 18.32 -10 19 C-10 18.34 -10 17.68 -10 17 C-22.87 17 -35.74 17 -49 17 C-48.67 16.34 -48.34 15.68 -48 15 C-46.39125 15.061875 -46.39125 15.061875 -44.75 15.125 C-38.72571763 15.1357962 -31.44017678 14.72008839 -26 12 C-24.00039988 11.960008 -21.99952758 11.95653201 -20 12 C-20 12.66 -20 13.32 -20 14 C-19.01 13.67 -18.02 13.34 -17 13 C-16.34 13.185625 -15.68 13.37125 -15 13.5625 C-14.34 13.706875 -13.68 13.85125 -13 14 C-12.01 13.34 -11.02 12.68 -10 12 C-9.83333333 9 -9.83333333 9 -10 6 C-9.67 5.34 -9.34 4.68 -9 4 C-8.34 4 -7.68 4 -7 4 C-7 3.34 -7 2.68 -7 2 C-4.35261084 0.5393715 -3.10551666 0 0 0 Z " fill="#0C2B73" transform="translate(370,196)"/>
<path d="M0 0 C0 0.33 0 0.66 0 1 C-2.18649652 1.31944559 -4.37428759 1.6300281 -6.5625 1.9375 C-7.78066406 2.11152344 -8.99882812 2.28554687 -10.25390625 2.46484375 C-14.42316799 2.99119783 -18.6044564 3.26534118 -22.79663086 3.53344727 C-23.83765583 3.60136852 -23.83765583 3.60136852 -24.89971161 3.67066193 C-26.59974314 3.78143714 -28.29986298 3.89085571 -30 4 C-29.2277005 3.99333817 -28.455401 3.98667633 -27.65969849 3.97981262 C-20.39056534 3.91976503 -13.121552 3.87405822 -5.85223579 3.84456348 C-2.11476204 3.82889028 1.62250723 3.80762239 5.35986328 3.77368164 C8.9649164 3.74114633 12.56977252 3.72315946 16.17496109 3.71536827 C17.55213651 3.70981419 18.92930085 3.69896865 20.30639267 3.68280983 C22.23133631 3.66111565 24.15647712 3.65977529 26.08154297 3.65942383 C27.17852509 3.65276199 28.2755072 3.64610016 29.4057312 3.63923645 C30.2618399 3.75828842 31.11794861 3.87734039 32 4 C32.99 5.485 32.99 5.485 34 7 C7.6 7 -18.8 7 -46 7 C-46.33 6.34 -46.66 5.68 -47 5 C-45.18459764 2.6387878 -44.20949188 2.0397191 -41.23535156 1.47583008 C-40.1315918 1.40775146 -39.02783203 1.33967285 -37.890625 1.26953125 C-36.66690186 1.18880371 -35.44317871 1.10807617 -34.18237305 1.02490234 C-32.88468994 0.95480957 -31.58700684 0.8847168 -30.25 0.8125 C-28.9400708 0.73209473 -27.6301416 0.65168945 -26.28051758 0.56884766 C-17.51234265 0.05829156 -8.78100179 -0.27298451 0 0 Z " fill="#465683" transform="translate(312,216)"/>
<path d="M0 0 C0.33 0.66 0.66 1.32 1 2 C1.99 1.34 2.98 0.68 4 0 C5.9375 -0.0625 5.9375 -0.0625 8 1 C11.23712659 5.58592934 12.39728307 8.30560931 12 14 C12.33 14.66 12.66 15.32 13 16 C7.72 16.66 2.44 17.32 -3 18 C-3 19.65 -3 21.3 -3 23 C-3.33 23 -3.66 23 -4 23 C-4.1875 20.125 -4.1875 20.125 -4 17 C-3.01 16.34 -2.02 15.68 -1 15 C-1.33 14.01 -1.66 13.02 -2 12 C-2.4 3.6 -2.4 3.6 0 0 Z " fill="#0D53A8" transform="translate(181,184)"/>
<path d="M0 0 C1.87365234 -0.02126953 1.87365234 -0.02126953 3.78515625 -0.04296875 C6.9375 0.1875 6.9375 0.1875 8.9375 2.1875 C10.93510305 2.53490923 12.93537771 2.86716043 14.9375 3.1875 C15.55625 3.5175 16.175 3.8475 16.8125 4.1875 C24.3994464 7.75782772 34.73144936 6.27712919 42.9375 6.1875 C43.4325 7.1775 43.4325 7.1775 43.9375 8.1875 C26.85939549 10.22233798 26.85939549 10.22233798 20.9375 8.125 C16.51476806 6.74289627 12.46500949 7.52537411 7.9375 8.1875 C7.9375 7.5275 7.9375 6.8675 7.9375 6.1875 C6.9475 6.5175 5.9575 6.8475 4.9375 7.1875 C3.9475 7.1875 2.9575 7.1875 1.9375 7.1875 C2.9275 7.8475 3.9175 8.5075 4.9375 9.1875 C4.9375 9.8475 4.9375 10.5075 4.9375 11.1875 C4.2775 11.1875 3.6175 11.1875 2.9375 11.1875 C2.6075 11.8475 2.2775 12.5075 1.9375 13.1875 C1.421875 12.445 0.90625 11.7025 0.375 10.9375 C-3.5504692 6.50876552 -8.0825438 3.91234318 -14.0625 3.1875 C-9.20096641 0.67291366 -5.49289289 0.02840172 0 0 Z " fill="#205AA4" transform="translate(409.0625,189.8125)"/>
<path d="M0 0 C1.32 0.33 2.64 0.66 4 1 C0.125 7.875 0.125 7.875 -1 9 C0.98 9 2.96 9 5 9 C5 10.65 5 12.3 5 14 C4.505 13.01 4.505 13.01 4 12 C2.02 13.32 0.04 14.64 -2 16 C-2.66 15.34 -3.32 14.68 -4 14 C-5.9267795 14.01494748 -5.9267795 14.01494748 -8 14.4375 C-11.79836512 15.10081744 -11.79836512 15.10081744 -14 14 C-14 14.66 -14 15.32 -14 16 C-17.73486879 16.5745952 -21.21293268 17 -25 17 C-26.00496852 20.01490557 -26.10335303 22.04181692 -26.0625 25.1875 C-26.04896484 26.53908203 -26.04896484 26.53908203 -26.03515625 27.91796875 C-26.02355469 28.60503906 -26.01195312 29.29210937 -26 30 C-26.99 29.34 -27.98 28.68 -29 28 C-29.55392797 23.25204597 -29.49260517 20.9669657 -27.3125 16.6875 C-22.09486324 10.62375998 -16.2010053 10.1801508 -8.59375 9.0390625 C-4.41749345 7.83157963 -2.66556908 6.39347449 0 3 C0 2.01 0 1.02 0 0 Z " fill="#167CC1" transform="translate(206,168)"/>
<path d="M0 0 C12.09553471 2.19918813 23.91178051 6.75829624 35 12 C32 14 32 14 30 14 C30 13.34 30 12.68 30 12 C28.68 12 27.36 12 26 12 C26 12.66 26 13.32 26 14 C25.34 14 24.68 14 24 14 C24 14.66 24 15.32 24 16 C21.44820864 14.99586549 18.92052443 13.96470421 16.4140625 12.8515625 C8.44666337 9.34769229 0.42632453 7.06053564 -8 5 C-8 4.67 -8 4.34 -8 4 C-2.36718401 3.7603057 2.54538831 4.61470179 8 6 C8 5.34 8 4.68 8 4 C7.236875 3.896875 6.47375 3.79375 5.6875 3.6875 C2.77363954 2.94209384 1.97049603 2.15541061 0 0 Z " fill="#1978B8" transform="translate(322,149)"/>
<path d="M0 0 C0.66 0 1.32 0 2 0 C2 0.66 2 1.32 2 2 C1.34 2 0.68 2 0 2 C0 2.99 0 3.98 0 5 C-0.99 5.495 -0.99 5.495 -2 6 C-2.65772428 9.02934491 -2.65772428 9.02934491 -3 12 C-3.99 12 -4.98 12 -6 12 C-6 14.97 -6 17.94 -6 21 C-5.34 21 -4.68 21 -4 21 C-3.34 22.65 -2.68 24.3 -2 26 C-1.01 25.67 -0.02 25.34 1 25 C3.33299825 24.96045766 5.66708189 24.95598268 8 25 C8 25.66 8 26.32 8 27 C13.28 26.67 18.56 26.34 24 26 C24.66 24.35 25.32 22.7 26 21 C29 20 29 20 32 20 C31.4024765 25.3777115 31.4024765 25.3777115 29.9128418 27.6809082 C27.01520484 29.67911273 24.097628 29.36966893 20.70703125 29.29296875 C19.64798836 29.28660149 19.64798836 29.28660149 18.56755066 29.28010559 C16.31547697 29.26333034 14.06430258 29.22568243 11.8125 29.1875 C10.28451815 29.17245157 8.75652224 29.15876344 7.22851562 29.14648438 C3.48533128 29.11343089 -0.25718196 29.06165832 -4 29 C-4.66559784 27.75557212 -5.32120417 26.50579739 -5.97265625 25.25390625 C-6.33883057 24.5585376 -6.70500488 23.86316895 -7.08227539 23.14672852 C-9.11569766 18.39017571 -8.4083887 14.24666024 -6.8125 9.375 C-4.83532842 5.69337016 -2.87396395 3.02134672 0 0 Z " fill="#343E5C" transform="translate(376,200)"/>
<path d="M0 0 C1.34538761 2.69077521 0.56474266 4.42397543 -0.08105469 7.25683594 C-1.91936205 15.34464259 -2.12415511 21.86604019 0 30 C0.28617188 31.15242188 0.28617188 31.15242188 0.578125 32.328125 C0.71734375 32.87984375 0.8565625 33.4315625 1 34 C-0.485 33.505 -0.485 33.505 -2 33 C-3.14814997 30.70370006 -3.30769809 28.92301914 -3.5625 26.375 C-3.64628906 25.55773437 -3.73007813 24.74046875 -3.81640625 23.8984375 C-3.87699219 23.27195313 -3.93757812 22.64546875 -4 22 C-4.99 22.33 -5.98 22.66 -7 23 C-7.33 24.98 -7.66 26.96 -8 29 C-8.33 29 -8.66 29 -9 29 C-9.02717692 26.93757383 -9.0464758 24.87504297 -9.0625 22.8125 C-9.07410156 21.66394531 -9.08570313 20.51539063 -9.09765625 19.33203125 C-9.01192832 16.40699414 -8.67849023 13.83683709 -8 11 C-10.64 11.33 -13.28 11.66 -16 12 C-15.401875 11.2575 -14.80375 10.515 -14.1875 9.75 C-12.41826778 7.52582236 -10.69139085 5.28337765 -9 3 C-7.35 3.33 -5.7 3.66 -4 4 C-3.67 3.01 -3.34 2.02 -3 1 C-2.01 0.67 -1.02 0.34 0 0 Z " fill="#095CA6" transform="translate(219,166)"/>
<path d="M0 0 C4.01423819 2.38189237 6.7487723 4.63486044 8.75 8.9375 C9.69276088 13.10136054 9.6699169 17.00207742 9.5 21.25 C9.17 21.25 8.84 21.25 8.5 21.25 C8.5 18.61 8.5 15.97 8.5 13.25 C7.84 13.25 7.18 13.25 6.5 13.25 C5.84 12.26 5.18 11.27 4.5 10.25 C3.51 9.92 2.52 9.59 1.5 9.25 C1.5 8.59 1.5 7.93 1.5 7.25 C0.84 7.25 0.18 7.25 -0.5 7.25 C-0.5 6.26 -0.5 5.27 -0.5 4.25 C-1.469375 4.58 -2.43875 4.91 -3.4375 5.25 C-7.68521739 6.45251062 -12.12609994 7.0383192 -16.5 6.25 C-18.078125 4.85546875 -18.078125 4.85546875 -19.5 3.25 C-20.49 2.59 -21.48 1.93 -22.5 1.25 C-15.86862128 -3.17091915 -7.19009214 -3.40654178 0 0 Z " fill="#1D63A3" transform="translate(400.5,197.75)"/>
<path d="M0 0 C2.25 0.625 2.25 0.625 4 2 C4.75 5.125 4.75 5.125 5 8 C1.09727964 9.95136018 -3.77126882 9.1848396 -8.0625 9.1875 C-9.07505859 9.19974609 -10.08761719 9.21199219 -11.13085938 9.22460938 C-16.724981 9.23542973 -21.77854323 8.85692179 -27.18847656 7.39428711 C-29.67088323 6.85397892 -31.57252945 7.34392688 -34 8 C-35.9996441 8.03772913 -38.00054061 8.04649906 -40 8 C-40.33 7.34 -40.66 6.68 -41 6 C-33.71402726 4.86662646 -26.37913167 4 -19 4 C-19 4.66 -19 5.32 -19 6 C-15.37 6 -11.74 6 -8 6 C-8 4.68 -8 3.36 -8 2 C-4.73036051 -0.17975966 -3.78270322 -0.36904422 0 0 Z " fill="#0D2D73" transform="translate(465,204)"/>
<path d="M0 0 C30.36 0 60.72 0 92 0 C92 0.66 92 1.32 92 2 C90.35295578 2.00879936 90.35295578 2.00879936 88.67263794 2.01777649 C78.34238187 2.07490272 68.01233837 2.14761088 57.68229866 2.23571491 C52.37105948 2.28050941 47.05989862 2.31974528 41.74853516 2.34643555 C36.62611882 2.37237823 31.50400245 2.4127158 26.38177109 2.46318626 C24.42411902 2.47991637 22.46641499 2.49139222 20.50870132 2.49761391 C17.77387022 2.50718853 15.03981727 2.53516678 12.30517578 2.56762695 C11.48950134 2.56619186 10.6738269 2.56475677 9.83343506 2.5632782 C7.35393772 2.56986422 7.35393772 2.56986422 4 3 C2.0549 5.91765 1.54723683 7.62537285 1 11 C0.34 10.67 -0.32 10.34 -1 10 C-0.67 6.7 -0.34 3.4 0 0 Z " fill="#63A3D0" transform="translate(288,178)"/>
<path d="M0 0 C0.8768042 0.12600586 1.7536084 0.25201172 2.65698242 0.38183594 C3.49076416 0.51106445 4.3245459 0.64029297 5.18359375 0.7734375 C6.30399048 0.94625244 6.30399048 0.94625244 7.44702148 1.12255859 C9.7092603 1.65985663 11.52951994 2.51003795 13.5625 3.625 C10.14394688 5.728725 7.53447482 5.87324843 3.5625 5.625 C2.86125 5.439375 2.16 5.25375 1.4375 5.0625 C-0.8232569 4.53499006 -2.25265292 4.92272772 -4.4375 5.625 C-5.0975 4.635 -5.7575 3.645 -6.4375 2.625 C-9.32345946 2.04018879 -9.32345946 2.04018879 -12.5625 1.9375 C-13.65820312 1.87175781 -14.75390625 1.80601562 -15.8828125 1.73828125 C-16.72585938 1.70089844 -17.56890625 1.66351563 -18.4375 1.625 C-18.4375 2.285 -18.4375 2.945 -18.4375 3.625 C-19.0975 3.625 -19.7575 3.625 -20.4375 3.625 C-20.086875 4.181875 -19.73625 4.73875 -19.375 5.3125 C-18.19587791 8.22100114 -18.6155569 9.63611601 -19.4375 12.625 C-19.77310525 13.9577633 -20.10682734 15.29100432 -20.4375 16.625 C-20.59605469 16.03332031 -20.75460937 15.44164062 -20.91796875 14.83203125 C-22.51323563 9.42927658 -24.21211322 6.50778785 -28.4375 2.625 C-28.4375 1.635 -28.4375 0.645 -28.4375 -0.375 C-18.77582997 -2.09263023 -9.66037742 -1.41088135 0 0 Z " fill="#1F5991" transform="translate(307.4375,154.375)"/>
<path d="M0 0 C20.79 0 41.58 0 63 0 C63 0.33 63 0.66 63 1 C57.43263553 1.81373388 52.17810688 2.08851549 46.5625 1.87890625 C45.41418701 1.84348976 45.41418701 1.84348976 44.24267578 1.80735779 C41.82822077 1.73156654 39.41415768 1.64718612 37 1.5625 C35.35027878 1.50919433 33.70053916 1.45645473 32.05078125 1.40429688 C28.03361205 1.27606797 24.01677052 1.14014207 20 1 C20 1.66 20 2.32 20 3 C21.98 3.66 23.96 4.32 26 5 C25.34 5.66 24.68 6.32 24 7 C21.05859375 6.9765625 21.05859375 6.9765625 17.4375 6.625 C11.91797224 6.14182816 6.53698705 5.90453471 1 6 C0.67 4.02 0.34 2.04 0 0 Z " fill="#0D79C2" transform="translate(294,180)"/>
<path d="M0 0 C0.99 0.33 1.98 0.66 3 1 C2.01 2.485 2.01 2.485 1 4 C0.67 4.66 0.34 5.32 0 6 C0.66 6.66 1.32 7.32 2 8 C2.125 11.125 2.125 11.125 2 14 C4.97 14 7.94 14 11 14 C10.67 14.99 10.34 15.98 10 17 C8.77023437 17.09087891 8.77023437 17.09087891 7.515625 17.18359375 C5.89914062 17.30927734 5.89914062 17.30927734 4.25 17.4375 C3.18265625 17.51871094 2.1153125 17.59992188 1.015625 17.68359375 C-1.8956532 17.90306608 -1.8956532 17.90306608 -4.21875 18.625 C-6 19 -6 19 -8.75 17.5625 C-9.4925 17.046875 -10.235 16.53125 -11 16 C-9.69389223 12.46913451 -8.15115051 9.44281844 -6.0625 6.3125 C-5.55847656 5.54550781 -5.05445313 4.77851563 -4.53515625 3.98828125 C-3 2 -3 2 0 0 Z " fill="#0D2E77" transform="translate(285,195)"/>
<path d="M0 0 C2.43017578 -0.2487793 2.43017578 -0.2487793 5.4453125 -0.07421875 C7.05986328 0.00795898 7.05986328 0.00795898 8.70703125 0.09179688 C9.83496094 0.16462891 10.96289062 0.23746094 12.125 0.3125 C13.82849609 0.4043457 13.82849609 0.4043457 15.56640625 0.49804688 C18.37866961 0.6516579 21.18935144 0.81955472 24 1 C24.495 2.98 24.495 2.98 25 5 C7.18 5 -10.64 5 -29 5 C-29 4.67 -29 4.34 -29 4 C-22.11002146 2.96570761 -15.48980235 2.97335279 -8.5390625 3.21484375 C-7.724375 3.22902344 -6.9096875 3.24320313 -6.0703125 3.2578125 C-4.96840576 3.29092529 -4.96840576 3.29092529 -3.84423828 3.32470703 C-3.23563965 3.21755371 -2.62704102 3.11040039 -2 3 C-1.34 2.01 -0.68 1.02 0 0 Z " fill="#0E2F82" transform="translate(199,222)"/>
<path d="M0 0 C0.99 0 1.98 0 3 0 C3 0.99 3 1.98 3 3 C4.32 2.34 5.64 1.68 7 1 C7 1.66 7 2.32 7 3 C7.66 3.33 8.32 3.66 9 4 C8.071875 4.433125 7.14375 4.86625 6.1875 5.3125 C2.64667271 7.18296637 2.64667271 7.18296637 0 10 C-0.28827037 12.21111227 -0.28827037 12.21111227 -0.0625 14.625 C0.11103213 19.75551501 -0.71961799 24.03851972 -2 29 C-4.64 29.66 -7.28 30.32 -10 31 C-9.1875 29.0625 -9.1875 29.0625 -8 27 C-7.01 26.67 -6.02 26.34 -5 26 C-2.94205752 21.52563474 -2.88070531 17.96908797 -3.375 13.125 C-3.48585938 11.97257813 -3.59671875 10.82015625 -3.7109375 9.6328125 C-3.80632812 8.76398438 -3.90171875 7.89515625 -4 7 C-8.95 5.02 -8.95 5.02 -14 3 C-10.62343101 0.748954 -10.20287392 0.8548618 -6.4375 1.5 C-4.12184804 1.94576672 -4.12184804 1.94576672 -2 2 C-1.34 1.34 -0.68 0.68 0 0 Z " fill="#FBA22B" transform="translate(267,162)"/>
<path d="M0 0 C4.29 0.66 8.58 1.32 13 2 C13 2.66 13 3.32 13 4 C18.61 4.66 24.22 5.32 30 6 C30 6.99 30 7.98 30 9 C22.74 9 15.48 9 8 9 C8 8.01 8 7.02 8 6 C6.1128125 6.309375 6.1128125 6.309375 4.1875 6.625 C0.5985242 7.21335669 0.24926122 7.16617415 -3 5 C-3 4.34 -3 3.68 -3 3 C-0.525 3.495 -0.525 3.495 2 4 C2 3.34 2 2.68 2 2 C1.34 2 0.68 2 0 2 C0 1.34 0 0.68 0 0 Z " fill="#045CAB" transform="translate(370,169)"/>
<path d="M0 0 C0.99 0.33 1.98 0.66 3 1 C3 2.65 3 4.3 3 6 C3.55171875 5.83886719 4.1034375 5.67773438 4.671875 5.51171875 C11.86572282 3.93052066 19.04189735 4.89944071 26 7 C26 7.66 26 8.32 26 9 C19.25 11.125 19.25 11.125 17 10 C15.66431979 10.32380126 14.33076989 10.65657551 13 11 C12.67 10.67 12.34 10.34 12 10 C11.34 10.66 10.68 11.32 10 12 C8.68 11.34 7.36 10.68 6 10 C6 9.34 6 8.68 6 8 C3.03 8 0.06 8 -3 8 C-2.25 2.25 -2.25 2.25 0 0 Z " fill="#0A67B5" transform="translate(292,180)"/>
<path d="M0 0 C0 0.33 0 0.66 0 1 C-1.46808105 0.99214478 -1.46808105 0.99214478 -2.96582031 0.98413086 C-6.60366905 0.96600439 -10.24151381 0.95454003 -13.87939453 0.94506836 C-15.45264355 0.94004563 -17.02588792 0.93322625 -18.59912109 0.92456055 C-20.86296743 0.91240471 -23.12675193 0.90675104 -25.390625 0.90234375 C-26.09181458 0.89718246 -26.79300415 0.89202118 -27.51544189 0.88670349 C-30.93355044 0.88631255 -33.64875894 1.16218973 -37 2 C-29.08 2.33 -21.16 2.66 -13 3 C-13 3.33 -13 3.66 -13 4 C-17.01936022 4.21828559 -21.03915861 4.414881 -25.06054688 4.59204102 C-26.42639007 4.65519673 -27.79198001 4.7241182 -29.15722656 4.79907227 C-31.1274769 4.90621362 -33.09893077 4.99043503 -35.0703125 5.07421875 C-36.84559326 5.16062622 -36.84559326 5.16062622 -38.65673828 5.2487793 C-42.41781402 4.96890956 -44.76537297 3.8843533 -48 2 C-48 1.34 -48 0.68 -48 0 C-31.52992434 -2.04960941 -16.47007566 -2.04960941 0 0 Z " fill="#5DA9D2" transform="translate(317,148)"/>
<path d="M0 0 C0.66 0 1.32 0 2 0 C2 0.66 2 1.32 2 2 C2.89203125 1.84402344 3.7840625 1.68804687 4.703125 1.52734375 C5.87359375 1.33269531 7.0440625 1.13804687 8.25 0.9375 C9.99023438 0.64166016 9.99023438 0.64166016 11.765625 0.33984375 C14.62522624 0.0393784 16.33325929 0.0560794 19 1 C19 3 19 3 17.5625 4.5 C17.046875 4.995 16.53125 5.49 16 6 C15.67 6.66 15.34 7.32 15 8 C15.66 8.33 16.32 8.66 17 9 C16.67 9.33 16.34 9.66 16 10 C13.80949979 9.90982004 11.621534 9.75333792 9.4375 9.5625 C8.23996094 9.46066406 7.04242188 9.35882813 5.80859375 9.25390625 C4.88175781 9.17011719 3.95492187 9.08632812 3 9 C1.78255136 6.01576614 0.69995819 3.14981186 0 0 Z " fill="#0D2A6F" transform="translate(180,209)"/>
<path d="M0 0 C-1.44126786 3.36295835 -3.20592655 5.62927102 -6 8 C-6.99 8 -7.98 8 -9 8 C-9.33 10.64 -9.66 13.28 -10 16 C-10.103125 15.360625 -10.20625 14.72125 -10.3125 14.0625 C-10.539375 13.381875 -10.76625 12.70125 -11 12 C-11.99 11.67 -12.98 11.34 -14 11 C-14.33 12.32 -14.66 13.64 -15 15 C-15.33 14.34 -15.66 13.68 -16 13 C-18.52733235 12.34444881 -18.52733235 12.34444881 -21 12 C-20.34 11.67 -19.68 11.34 -19 11 C-18.34 11.33 -17.68 11.66 -17 12 C-16.67 9.69 -16.34 7.38 -16 5 C-16.66 4.67 -17.32 4.34 -18 4 C-15.75194998 3.32678716 -13.50147776 2.66165877 -11.25 2 C-9.99703125 1.62875 -8.7440625 1.2575 -7.453125 0.875 C-4 0 -4 0 0 0 Z " fill="#3487BF" transform="translate(230,156)"/>
<path d="M0 0 C12.76470588 4.52941176 12.76470588 4.52941176 15 9 C11.62294375 8.46274105 8.303314 7.88935377 5 7 C4.67 8.32 4.34 9.64 4 11 C3.13117188 10.57847656 2.26234375 10.15695313 1.3671875 9.72265625 C0.21476562 9.17480469 -0.93765625 8.62695312 -2.125 8.0625 C-3.26195312 7.51722656 -4.39890625 6.97195312 -5.5703125 6.41015625 C-8.78186661 5.0896881 -11.56709079 4.41215779 -15 4 C-11.86501708 2.14223235 -9.62528568 1.79859524 -6 2 C-6 2.66 -6 3.32 -6 4 C-5.01 4 -4.02 4 -3 4 C-2.67 3.34 -2.34 2.68 -2 2 C-1.34 1.34 -0.68 0.68 0 0 Z " fill="#3665A3" transform="translate(447,185)"/>
<path d="M0 0 C1.65 0.33 3.3 0.66 5 1 C5.33 1.99 5.66 2.98 6 4 C7.96446325 4.84688218 7.96446325 4.84688218 10.3125 5.25 C11.48232422 5.50523437 11.48232422 5.50523437 12.67578125 5.765625 C15.07651867 6.00771617 16.71809588 5.7310448 19 5 C19 6.65 19 8.3 19 10 C13.06 10.33 7.12 10.66 1 11 C-1.25 4.25 -1.25 4.25 0 0 Z " fill="#0F2D62" transform="translate(288,162)"/>
<path d="M0 0 C-0.33 0.66 -0.66 1.32 -1 2 C0.32 1.67 1.64 1.34 3 1 C2.67 4.96 2.34 8.92 2 13 C-1.63 13 -5.26 13 -9 13 C-8.01 12.67 -7.02 12.34 -6 12 C-6.350625 10.9275 -6.70125 9.855 -7.0625 8.75 C-8.37931034 3.48275862 -8.37931034 3.48275862 -7 1 C-2.66666667 -1.33333333 -2.66666667 -1.33333333 0 0 Z " fill="#1B3574" transform="translate(219,207)"/>
<path d="M0 0 C-0.33 1.98 -0.66 3.96 -1 6 C-1.95712891 6.30744141 -1.95712891 6.30744141 -2.93359375 6.62109375 C-3.75988281 6.89050781 -4.58617187 7.15992188 -5.4375 7.4375 C-6.67306641 7.83775391 -6.67306641 7.83775391 -7.93359375 8.24609375 C-9.96219588 8.82155494 -9.96219588 8.82155494 -11 10 C-13.69082872 9.82364548 -16.32851446 9.38164079 -19 9 C-19.33 8.01 -19.66 7.02 -20 6 C-19.34 6 -18.68 6 -18 6 C-18 5.34 -18 4.68 -18 4 C-16.1291122 3.32187886 -14.25305707 2.6580054 -12.375 2 C-11.33085937 1.62875 -10.28671875 1.2575 -9.2109375 0.875 C-5.98225494 -0.00483564 -3.32755706 -0.15988262 0 0 Z " fill="#1A73B4" transform="translate(214,161)"/>
<path d="M0 0 C0 0.33 0 0.66 0 1 C-4.74048664 1.65386023 -9.21054053 2 -14 2 C-14.33 2.33 -14.66 2.66 -15 3 C-16.99964982 3.08758003 -19.0023611 3.10696576 -21.00390625 3.09765625 C-22.21884766 3.09443359 -23.43378906 3.09121094 -24.68554688 3.08789062 C-25.96494141 3.07951172 -27.24433594 3.07113281 -28.5625 3.0625 C-29.84576172 3.05798828 -31.12902344 3.05347656 -32.45117188 3.04882812 C-35.63416022 3.03699545 -38.81705762 3.02051068 -42 3 C-41.34 2.01 -40.68 1.02 -40 0 C-37.65258789 -0.41650391 -37.65258789 -0.41650391 -34.72265625 -0.4765625 C-33.65080078 -0.5075 -32.57894531 -0.5384375 -31.47460938 -0.5703125 C-30.34861328 -0.58835938 -29.22261719 -0.60640625 -28.0625 -0.625 C-25.8658178 -0.67690035 -23.66919916 -0.73156822 -21.47265625 -0.7890625 C-20.39387207 -0.81387695 -19.31508789 -0.83869141 -18.20361328 -0.86425781 C-14.2189569 -1.03309404 -10.29062322 -1.47001869 -6.33764648 -1.98974609 C-3.6780668 -2.00141214 -2.25325533 -1.36125369 0 0 Z " fill="#0C2D76" transform="translate(336,210)"/>
<path d="M0 0 C7.42857143 1 7.42857143 1 11 2 C11.33 1.34 11.66 0.68 12 0 C16.33168317 -0.26252625 19.8803623 0.70756464 24 2 C24 3.32 24 4.64 24 6 C17.4 5.34 10.8 4.68 4 4 C6.64 5.65 9.28 7.3 12 9 C11.01 9.66 10.02 10.32 9 11 C8.67 10.01 8.34 9.02 8 8 C7.13375 8.185625 6.2675 8.37125 5.375 8.5625 C1.90607821 9.01217505 -0.61890633 8.84527342 -4 8 C-4.66 7.34 -5.32 6.68 -6 6 C-4.02 6 -2.04 6 0 6 C0.66 4.68 1.32 3.36 2 2 C1.34 1.34 0.68 0.68 0 0 Z " fill="#247EBD" transform="translate(408,182)"/>
<path d="M0 0 C0.33 0.66 0.66 1.32 1 2 C1.33 1.34 1.66 0.68 2 0 C5 1 5 1 7 5 C19.21 5 31.42 5 44 5 C44 5.33 44 5.66 44 6 C37.79679647 6.0251048 31.59362383 6.04304712 25.39038086 6.05493164 C23.28913863 6.05989684 21.18789973 6.06667123 19.08666992 6.07543945 C5.68650135 6.12987263 -7.62685264 5.87600485 -21 5 C-20.67 4.34 -20.34 3.68 -20 3 C-13.4 3 -6.8 3 0 3 C0 2.01 0 1.02 0 0 Z " fill="#4B5D81" transform="translate(309,169)"/>
<path d="M0 0 C1.010625 0.66 2.02125 1.32 3.0625 2 C2.7325 3.32 2.4025 4.64 2.0625 6 C1.44375 5.360625 0.825 4.72125 0.1875 4.0625 C-2.44270449 1.47344584 -2.44270449 1.47344584 -5.92578125 1.015625 C-11.76708984 1.60466452 -15.79431101 2.39755623 -19.6875 7.125 C-21.38198648 11.02231891 -21.67141483 14.78851406 -21.9375 19 C-22.5975 18.67 -23.2575 18.34 -23.9375 18 C-23.9645043 16.54176788 -23.98389787 15.08339325 -24 13.625 C-24.01160156 12.81289062 -24.02320313 12.00078125 -24.03515625 11.1640625 C-23.9375 9 -23.9375 9 -22.9375 7 C-23.5975 6.67 -24.2575 6.34 -24.9375 6 C-24.25 3.5625 -24.25 3.5625 -22.9375 1 C-20.75 0.3125 -20.75 0.3125 -17.9375 0 C-16.82375 -0.350625 -15.71 -0.70125 -14.5625 -1.0625 C-9.0431557 -2.48991663 -5.01434734 -2.84516288 0 0 Z " fill="#F69E37" transform="translate(260.9375,167)"/>
<path d="M0 0 C1.60597325 0.45196245 3.20972508 0.91182327 4.8125 1.375 C6.15248047 1.75785156 6.15248047 1.75785156 7.51953125 2.1484375 C10 3 10 3 13 5 C10.69 4.67 8.38 4.34 6 4 C6 4.66 6 5.32 6 6 C6.66 6 7.32 6 8 6 C8 6.66 8 7.32 8 8 C6.35 7.67 4.7 7.34 3 7 C3 7.66 3 8.32 3 9 C4.32 9.33 5.64 9.66 7 10 C7 9.67 7 9.34 7 9 C9.31 9 11.62 9 14 9 C14.33 9.66 14.66 10.32 15 11 C14.67 11.66 14.34 12.32 14 13 C6.58783319 12.64134677 1.43520528 10.64079463 -5 7 C-5 6.34 -5 5.68 -5 5 C-3.02 4.67 -1.04 4.34 1 4 C0.67 2.68 0.34 1.36 0 0 Z " fill="#3269A6" transform="translate(364,165)"/>
<path d="M0 0 C5.94 0 11.88 0 18 0 C17.67 1.65 17.34 3.3 17 5 C15.68 5 14.36 5 13 5 C13.33 5.66 13.66 6.32 14 7 C7.88514973 7.09706112 2.06696699 6.77040851 -4 6 C-4 5.67 -4 5.34 -4 5 C-1.36 5 1.28 5 4 5 C3.24849977 1.72226496 3.24849977 1.72226496 0 0 Z " fill="#0C2466" transform="translate(341,216)"/>
<path d="M0 0 C2.25 0.625 2.25 0.625 4 2 C4.75 5.125 4.75 5.125 5 8 C2.35541621 9.32229189 0.32238699 9.09677194 -2.625 9.0625 C-3.62789063 9.05347656 -4.63078125 9.04445312 -5.6640625 9.03515625 C-6.43492187 9.02355469 -7.20578125 9.01195312 -8 9 C-8.1875 5.625 -8.1875 5.625 -8 2 C-4.73036051 -0.17975966 -3.78270322 -0.36904422 0 0 Z " fill="#0E3381" transform="translate(465,204)"/>
<path d="M0 0 C2.27057377 -0.05398987 4.54151288 -0.09278742 6.8125 -0.125 C8.07707031 -0.14820313 9.34164063 -0.17140625 10.64453125 -0.1953125 C14 0 14 0 17 2 C15 2.66666667 13 3.33333333 11 4 C11.495 4.61875 11.99 5.2375 12.5 5.875 C14 8 14 8 14 10 C8.06 10.495 8.06 10.495 2 11 C2.66 10.67 3.32 10.34 4 10 C4 9.34 4 8.68 4 8 C3.34 7.67 2.68 7.34 2 7 C5.465 6.505 5.465 6.505 9 6 C8.67 5.01 8.34 4.02 8 3 C5.69 3.33 3.38 3.66 1 4 C0.67 2.68 0.34 1.36 0 0 Z " fill="#2B3B66" transform="translate(441,216)"/>
<path d="M0 0 C1.32 0.33 2.64 0.66 4 1 C3.52949219 1.53753906 3.05898438 2.07507813 2.57421875 2.62890625 C0.7023055 5.4483885 0.30466269 7.60173062 -0.1875 10.9375 C-0.34605469 11.95714844 -0.50460937 12.97679687 -0.66796875 14.02734375 C-1.09250404 17.32965957 -1.09250404 17.32965957 -1 22 C-5.62 22 -10.24 22 -15 22 C-14.67 21.34 -14.34 20.68 -14 20 C-13.01 20 -12.02 20 -11 20 C-11.33 19.34 -11.66 18.68 -12 18 C-9.36 18 -6.72 18 -4 18 C-3.67 15.69 -3.34 13.38 -3 11 C-3.66 11.66 -4.32 12.32 -5 13 C-4.32116957 9.88452559 -3.25893098 7.14862279 -1.9375 4.25 C-1.57527344 3.45078125 -1.21304687 2.6515625 -0.83984375 1.828125 C-0.56269531 1.22484375 -0.28554688 0.6215625 0 0 Z " fill="#3A4A79" transform="translate(365,202)"/>
<path d="M0 0 C-0.33 1.32 -0.66 2.64 -1 4 C-13.21 4 -25.42 4 -38 4 C-38 3.67 -38 3.34 -38 3 C-31.2329139 1.88301192 -24.4958548 1.65357474 -17.65039062 1.39453125 C-11.72628082 1.14751589 -5.8980583 0 0 0 Z " fill="#0B2469" transform="translate(310,217)"/>
<path d="M0 0 C1.4540625 0.0309375 1.4540625 0.0309375 2.9375 0.0625 C2.9375 0.7225 2.9375 1.3825 2.9375 2.0625 C3.5975 2.3925 4.2575 2.7225 4.9375 3.0625 C0.1875 4.1875 0.1875 4.1875 -2.0625 3.0625 C-2.0625 3.7225 -2.0625 4.3825 -2.0625 5.0625 C-5.79736879 5.6370952 -9.27543268 6.0625 -13.0625 6.0625 C-14.06746852 9.07740557 -14.16585303 11.10431692 -14.125 14.25 C-14.11146484 15.60158203 -14.11146484 15.60158203 -14.09765625 16.98046875 C-14.08605469 17.66753906 -14.07445312 18.35460937 -14.0625 19.0625 C-15.0525 18.4025 -16.0425 17.7425 -17.0625 17.0625 C-17.60146597 12.44279171 -17.45026738 9.97291037 -15.625 5.6875 C-12.50291577 2.48926737 -10.30213611 2.04332841 -5.98828125 1.38671875 C-3.04817621 0.89173149 -3.41789192 0.0697529 0 0 Z " fill="#2A82C3" transform="translate(194.0625,178.9375)"/>
<path d="M0 0 C0 0.33 0 0.66 0 1 C-14.22620092 3.49200458 -28.59351234 3.62901749 -43 4 C-43.33 3.34 -43.66 2.68 -44 2 C-12.473206 -0.38776806 -12.473206 -0.38776806 0 0 Z " fill="#53679A" transform="translate(312,216)"/>
<path d="M0 0 C0 0.66 0 1.32 0 2 C0.598125 2.12375 1.19625 2.2475 1.8125 2.375 C4 3 4 3 7 5 C7 5.66 7 6.32 7 7 C1.39 7 -4.22 7 -10 7 C-10 6.67 -10 6.34 -10 6 C-7.36 5.67 -4.72 5.34 -2 5 C-1.67 4.01 -1.34 3.02 -1 2 C-8.59 2 -16.18 2 -24 2 C-24 1.67 -24 1.34 -24 1 C-15.97667603 0.09958689 -8.07029553 -0.11547323 0 0 Z " fill="#516494" transform="translate(224,221)"/>
<path d="M0 0 C0.99 0 1.98 0 3 0 C3 1.32 3 2.64 3 4 C3.66 4.33 4.32 4.66 5 5 C2.69 5.66 0.38 6.32 -2 7 C-2 5.68 -2 4.36 -2 3 C-1.34 3 -0.68 3 0 3 C0 2.01 0 1.02 0 0 Z M-4 7 C-3.34 7.33 -2.68 7.66 -2 8 C-3.875 13.875 -3.875 13.875 -5 15 C-5.23653523 17.52596259 -5.42173692 20.03107207 -5.5625 22.5625 C-5.60568359 23.27341797 -5.64886719 23.98433594 -5.69335938 24.71679688 C-5.79971777 26.47761912 -5.90038846 28.2387832 -6 30 C-8.20336689 26.45545326 -8.23908926 23.55995103 -8.1875 19.4375 C-8.18105469 18.30183594 -8.17460937 17.16617188 -8.16796875 15.99609375 C-8 13 -8 13 -7 10 C-6.34 10 -5.68 10 -5 10 C-4.67 9.01 -4.34 8.02 -4 7 Z " fill="#EF9B3D" transform="translate(229,164)"/>
<path d="M0 0 C2.07975651 0.47732117 4.15886139 0.95767982 6.234375 1.453125 C11.10787051 2.41681055 16.04888034 2.6816539 21 3 C21 3.33 21 3.66 21 4 C10.605 4.495 10.605 4.495 0 5 C0 5.33 0 5.66 0 6 C-2.97 6 -5.94 6 -9 6 C-9.33 5.01 -9.66 4.02 -10 3 C-9.67 2.34 -9.34 1.68 -9 1 C-7.700625 1.020625 -6.40125 1.04125 -5.0625 1.0625 C-3.70834367 1.08399454 -2.35243917 1.07148199 -1 1 C-0.67 0.67 -0.34 0.34 0 0 Z " fill="#596B9A" transform="translate(436,210)"/>
<path d="M0 0 C2.875 0.0625 2.875 0.0625 6 1 C6.8971875 2.2375 6.8971875 2.2375 7.8125 3.5 C10.32477132 6.37116723 10.98717651 6.42376926 14.625 6.8125 C16.75743731 6.94356342 18.8640831 7 21 7 C21 7.66 21 8.32 21 9 C12.29841489 10.47484493 12.29841489 10.47484493 8 8 C7.67 7.34 7.34 6.68 7 6 C5.88625 6.350625 4.7725 6.70125 3.625 7.0625 C0 8 0 8 -2 7 C-2.125 4.625 -2.125 4.625 -2 2 C-1.34 1.34 -0.68 0.68 0 0 Z " fill="#F27D1D" transform="translate(234,185)"/>
<path d="M0 0 C-0.97265625 1.4921875 -0.97265625 1.4921875 -3 3 C-5.88588831 3.19535244 -8.56209032 3.23138751 -11.4375 3.125 C-13.06762776 3.09094736 -14.69784656 3.06100788 -16.328125 3.03515625 C-17.52405273 3.01606201 -17.52405273 3.01606201 -18.74414062 2.99658203 C-21.74803473 3.00113339 -24.70070608 3.25548184 -27.6875 3.5625 C-32.03797619 3.99815269 -35.7207348 3.87530425 -40 3 C-40 2.67 -40 2.34 -40 2 C-26.60784092 0.50754048 -13.47477774 -0.27719543 0 0 Z " fill="#40568F" transform="translate(199,223)"/>
<path d="M0 0 C0.55429687 0.15597656 1.10859375 0.31195313 1.6796875 0.47265625 C2.76636719 0.76462891 2.76636719 0.76462891 3.875 1.0625 C4.95394531 1.35833984 4.95394531 1.35833984 6.0546875 1.66015625 C8.07273593 2.21132607 8.07273593 2.21132607 10 1 C12.32581297 0.98355336 14.6522464 1.0360578 16.9765625 1.12109375 C17.66181 1.14470474 18.3470575 1.16831573 19.05307007 1.19264221 C21.24392416 1.26927857 23.43442472 1.35330246 25.625 1.4375 C27.10935764 1.49072076 28.59373259 1.54346116 30.078125 1.59570312 C33.71896737 1.7248933 37.35952844 1.86071074 41 2 C41 2.33 41 2.66 41 3 C26.81 3.33 12.62 3.66 -2 4 C-1.34 2.68 -0.68 1.36 0 0 Z " fill="#162C66" transform="translate(273,211)"/>
<path d="M0 0 C0.33 0.66 0.66 1.32 1 2 C1.99 1.34 2.98 0.68 4 0 C6.0625 0.0625 6.0625 0.0625 8 1 C9.3125 3.4375 9.3125 3.4375 10 6 C9.67 6.66 9.34 7.32 9 8 C6.625 8.75 6.625 8.75 4 9 C3.01 8.34 2.02 7.68 1 7 C0.01 7 -0.98 7 -2 7 C-1.125 1.125 -1.125 1.125 0 0 Z " fill="#0964B3" transform="translate(181,184)"/>
<path d="M0 0 C8.21217035 -0.34148211 16.02618069 0.71667531 24.125 2 C25.36765625 2.19078125 26.6103125 2.3815625 27.890625 2.578125 C30.92817806 3.04544086 33.96450411 3.51953422 37 4 C37 4.33 37 4.66 37 5 C35.08574219 4.98259766 35.08574219 4.98259766 33.1328125 4.96484375 C31.46354313 4.95546583 29.79427217 4.94636563 28.125 4.9375 C27.28324219 4.92912109 26.44148438 4.92074219 25.57421875 4.91210938 C24.76855469 4.90888672 23.96289062 4.90566406 23.1328125 4.90234375 C22.38918457 4.89710693 21.64555664 4.89187012 20.87939453 4.88647461 C18.90867432 4.88213364 18.90867432 4.88213364 17 6 C17 5.01 17 4.02 17 3 C15.78763672 3.03480469 15.78763672 3.03480469 14.55078125 3.0703125 C13.48214844 3.08835938 12.41351563 3.10640625 11.3125 3.125 C10.25675781 3.14820313 9.20101563 3.17140625 8.11328125 3.1953125 C4.97748141 2.99858729 2.82354627 2.33057654 0 1 C0 0.67 0 0.34 0 0 Z " fill="#4B82B3" transform="translate(383,172)"/>
<path d="M0 0 C0 1.32 0 2.64 0 4 C-0.66 4 -1.32 4 -2 4 C-2.66 5.65 -3.32 7.3 -4 9 C-4.33 8.34 -4.66 7.68 -5 7 C-5.66 7 -6.32 7 -7 7 C-7.33 7.66 -7.66 8.32 -8 9 C-9.4783226 6.04335481 -9.06032783 3.25770263 -9 0 C-5.93109813 -1.53445094 -3.29905734 -0.54984289 0 0 Z M2 -1 C2.99 -1 3.98 -1 5 -1 C5 -0.01 5 0.98 5 2 C4.34 2 3.68 2 3 2 C2.67 1.01 2.34 0.02 2 -1 Z " fill="#17418A" transform="translate(187,202)"/>
<path d="M0 0 C0.66 0.66 1.32 1.32 2 2 C-3.61 2 -9.22 2 -15 2 C-15 2.66 -15 3.32 -15 4 C-14.01 4 -13.02 4 -12 4 C-11.67 4.66 -11.34 5.32 -11 6 C-10.46375 6.433125 -9.9275 6.86625 -9.375 7.3125 C-8.92125 7.869375 -8.4675 8.42625 -8 9 C-8.25 11.4375 -8.25 11.4375 -9 14 C-9.33730009 15.33233537 -9.67133535 16.66550817 -10 18 C-10.15855469 17.40832031 -10.31710937 16.81664062 -10.48046875 16.20703125 C-12.07573563 10.80427658 -13.77461322 7.88278785 -18 4 C-18 3.01 -18 2.02 -18 1 C-12.07069473 -0.05409871 -6.01157788 -0.5881975 0 0 Z " fill="#57829F" transform="translate(297,153)"/>
<path d="M0 0 C8.99127285 1.02173555 17.81652564 3.09425087 26 7 C22.49337515 9.3377499 21.12370255 9.3298962 17 9 C14.1875 8.125 14.1875 8.125 12 7 C11.67 6.34 11.34 5.68 11 5 C8.42562419 4.08719862 8.42562419 4.08719862 5.4375 3.375 C4.42558594 3.11460937 3.41367187 2.85421875 2.37109375 2.5859375 C1.58863281 2.39257812 0.80617188 2.19921875 0 2 C0 1.34 0 0.68 0 0 Z " fill="#2E63A4" transform="translate(421,177)"/>
<path d="M0 0 C0 0.66 0 1.32 0 2 C-0.886875 1.979375 -1.77375 1.95875 -2.6875 1.9375 C-7.31962956 2.02489867 -10.11724405 2.41149603 -14 5 C-14.99 4.34 -15.98 3.68 -17 3 C-18.671549 3.30791692 -20.33805547 3.64386903 -22 4 C-24.5 3.625 -24.5 3.625 -27 3 C-28.3921875 2.7215625 -28.3921875 2.7215625 -29.8125 2.4375 C-30.534375 2.293125 -31.25625 2.14875 -32 2 C-32 1.67 -32 1.34 -32 1 C-28.54184898 0.82940635 -25.08345693 0.66426561 -21.625 0.5 C-20.17673828 0.42845703 -20.17673828 0.42845703 -18.69921875 0.35546875 C-12.46055108 0.06237698 -6.24530778 -0.06171592 0 0 Z " fill="#107AC4" transform="translate(390,179)"/>
<path d="M0 0 C-1.625 1.1875 -1.625 1.1875 -4 2 C-4.804375 1.566875 -5.60875 1.13375 -6.4375 0.6875 C-11.75968606 -1.8335355 -17.17701442 -1.74945611 -23 -2 C-23 -1.34 -23 -0.68 -23 0 C-29.4 3.07692308 -29.4 3.07692308 -32.4375 2.6875 C-32.953125 2.460625 -33.46875 2.23375 -34 2 C-23.2188431 -5.54680983 -11.67051679 -5.06456389 0 0 Z " fill="#F6D489" transform="translate(271,153)"/>
<path d="M0 0 C0.66 0 1.32 0 2 0 C2 0.66 2 1.32 2 2 C1.34 2 0.68 2 0 2 C0 2.99 0 3.98 0 5 C-0.99 5.495 -0.99 5.495 -2 6 C-2.65772428 9.02934491 -2.65772428 9.02934491 -3 12 C-3.99 12 -4.98 12 -6 12 C-6 14.97 -6 17.94 -6 21 C-5.34 21 -4.68 21 -4 21 C-4 22.98 -4 24.96 -4 27 C-7.3344988 23.95545762 -7.9448158 21.82776305 -8.25 17.25 C-8.13244529 10.11834765 -4.76247401 5.00670344 0 0 Z " fill="#677898" transform="translate(376,200)"/>
<path d="M0 0 C0.66 0 1.32 0 2 0 C2 0.66 2 1.32 2 2 C2.99 2 3.98 2 5 2 C5.12375 2.639375 5.2475 3.27875 5.375 3.9375 C5.684375 4.9584375 5.684375 4.9584375 6 6 C6.66 6.33 7.32 6.66 8 7 C8.33333333 8.33333333 8.66666667 9.66666667 9 11 C9.66 11.33 10.32 11.66 11 12 C11 12.66 11 13.32 11 14 C11.99 14 12.98 14 14 14 C13.67 12.68 13.34 11.36 13 10 C14.32 10.33 15.64 10.66 17 11 C15.60840337 14.47899158 14.36748512 15.48052501 11 17 C9.72839334 15.41728767 8.45774715 13.83380365 7.1875 12.25 C6.47980469 11.36828125 5.77210938 10.4865625 5.04296875 9.578125 C4.03169922 8.30195313 4.03169922 8.30195313 3 7 C2.41863281 6.29359375 1.83726562 5.5871875 1.23828125 4.859375 C0 3 0 3 0 0 Z " fill="#DC6738" transform="translate(235,217)"/>
<path d="M0 0 C4.15393731 3.5605177 5.86999683 7.57555671 6.36328125 12.98046875 C6.36196933 14.38291404 6.34480585 15.78542623 6.3125 17.1875 C6.31572266 17.89841797 6.31894531 18.60933594 6.32226562 19.34179688 C6.2835158 23.08643905 6.12387317 24.81419024 4 28 C3.67 21.4 3.34 14.8 3 8 C1.68 7.34 0.36 6.68 -1 6 C-1 3 -1 3 0 0 Z " fill="#E6A257" transform="translate(277,160)"/>
<path d="M0 0 C6.17222879 1.24028238 12.06682122 2.89603589 18 5 C18 5.33 18 5.66 18 6 C16.80375 5.95875 15.6075 5.9175 14.375 5.875 C11.44847813 5.84950765 9.99688951 6.00134317 7.25 7.1875 C1.94790963 8.51302259 -2.86475361 6.54555959 -8 5 C-8 4.67 -8 4.34 -8 4 C-2.36718401 3.7603057 2.54538831 4.61470179 8 6 C8 5.34 8 4.68 8 4 C7.236875 3.896875 6.47375 3.79375 5.6875 3.6875 C2.77363954 2.94209384 1.97049603 2.15541061 0 0 Z " fill="#4E98C8" transform="translate(322,149)"/>
<path d="M0 0 C4.09302326 5.11627907 4.09302326 5.11627907 3.75 8.375 C3.37875 9.179375 3.37875 9.179375 3 10 C0.5625 9.625 0.5625 9.625 -2 9 C-3 7 -4 5 -5 3 C-5.66 3 -6.32 3 -7 3 C-6.67 2.01 -6.34 1.02 -6 0 C-3 -1 -3 -1 0 0 Z " fill="#2F4A85" transform="translate(220,200)"/>
<path d="M0 0 C1.175625 0.433125 1.175625 0.433125 2.375 0.875 C12.35762365 3.97305562 21.64002589 4.23136419 32 4 C32.495 4.99 32.495 4.99 33 6 C29.67096691 6.39665075 26.34087356 6.72006417 23 7 C21.77796875 7.10248047 21.77796875 7.10248047 20.53125 7.20703125 C13.65219666 7.5085482 7.19580212 6.05196842 1 3 C0.67 2.01 0.34 1.02 0 0 Z " fill="#5176AC" transform="translate(420,192)"/>
<path d="M0 0 C3 2 3 2 3.6875 5.125 C3.8421875 6.548125 3.8421875 6.548125 4 8 C5.32 8.33 6.64 8.66 8 9 C8.99 13.29 9.98 17.58 11 22 C8.5552651 19.5552651 7.42979236 18.24242172 5.95703125 15.3125 C5.43012695 14.26449219 5.43012695 14.26449219 4.89257812 13.1953125 C4.53615234 12.47085938 4.17972656 11.74640625 3.8125 11 C3.26045898 9.91332031 3.26045898 9.91332031 2.69726562 8.8046875 C2.34986328 8.10601562 2.00246094 7.40734375 1.64453125 6.6875 C1.17043823 5.73423828 1.17043823 5.73423828 0.68676758 4.76171875 C0 3 0 3 0 0 Z " fill="#E1783C" transform="translate(223,194)"/>
<path d="M0 0 C0.70125 0.28875 1.4025 0.5775 2.125 0.875 C5.05452503 2.02133588 8.00921653 3.02625654 11 4 C8 6 8 6 6 6 C6 5.34 6 4.68 6 4 C4.68 4 3.36 4 2 4 C2 4.66 2 5.32 2 6 C1.34 6 0.68 6 0 6 C0 6.66 0 7.32 0 8 C-0.70125 7.71125 -1.4025 7.4225 -2.125 7.125 C-5.05452503 5.97866412 -8.00921653 4.97374346 -11 4 C-11 3.67 -11 3.34 -11 3 C-8.03 3.33 -5.06 3.66 -2 4 C-2 3.34 -2 2.68 -2 2 C-1.34 1.34 -0.68 0.68 0 0 Z " fill="#3C83BA" transform="translate(346,157)"/>
<path d="M0 0 C3.46161366 1.15387122 6.54028385 2.52771328 9.75 4.25 C9.75 4.91 9.75 5.57 9.75 6.25 C8.491875 6.105625 7.23375 5.96125 5.9375 5.8125 C0.54870505 5.21183814 -4.84883791 4.72449461 -10.25 4.25 C-10.25 3.92 -10.25 3.59 -10.25 3.25 C-8.27 3.25 -6.29 3.25 -4.25 3.25 C-4.58 2.26 -4.91 1.27 -5.25 0.25 C-3.25 -0.75 -3.25 -0.75 0 0 Z " fill="#0378C5" transform="translate(320.25,148.75)"/>
<path d="M0 0 C4.29 0.66 8.58 1.32 13 2 C13 2.66 13 3.32 13 4 C12.39671875 4.13277344 11.7934375 4.26554688 11.171875 4.40234375 C10.37265625 4.57894531 9.5734375 4.75554687 8.75 4.9375 C7.56664062 5.19853516 7.56664062 5.19853516 6.359375 5.46484375 C4.02235812 5.95624621 4.02235812 5.95624621 1.890625 6.69140625 C0 7 0 7 -3 5 C-3 4.34 -3 3.68 -3 3 C-0.525 3.495 -0.525 3.495 2 4 C2 3.34 2 2.68 2 2 C1.34 2 0.68 2 0 2 C0 1.34 0 0.68 0 0 Z " fill="#2C5B98" transform="translate(370,169)"/>
<path d="M0 0 C3 2 3 2 4 5 C3 6 3 6 0.40795898 6.11352539 C-0.71795654 6.10828857 -1.84387207 6.10305176 -3.00390625 6.09765625 C-4.21884766 6.09443359 -5.43378906 6.09121094 -6.68554688 6.08789062 C-7.96494141 6.07951172 -9.24433594 6.07113281 -10.5625 6.0625 C-11.84576172 6.05798828 -13.12902344 6.05347656 -14.45117188 6.04882812 C-17.63416022 6.03699545 -20.81705762 6.02051068 -24 6 C-24 5.67 -24 5.34 -24 5 C-16.41 4.67 -8.82 4.34 -1 4 C-0.67 2.68 -0.34 1.36 0 0 Z " fill="#113281" transform="translate(180,212)"/>
<path d="M0 0 C-0.33 0.99 -0.66 1.98 -1 3 C0.65 3.33 2.3 3.66 4 4 C1.77174356 6.22825644 0.34238372 6.69239369 -2.625 7.625 C-3.44226563 7.88539063 -4.25953125 8.14578125 -5.1015625 8.4140625 C-5.72804687 8.60742188 -6.35453125 8.80078125 -7 9 C-6.34 7.35 -5.68 5.7 -5 4 C-7.33317216 3.22227595 -9.61435923 2.57584432 -12 2 C-10.56656 1.46809459 -9.12804633 0.94984742 -7.6875 0.4375 C-6.48673828 0.00244141 -6.48673828 0.00244141 -5.26171875 -0.44140625 C-3 -1 -3 -1 0 0 Z " fill="#4D8DC7" transform="translate(196,167)"/>
<path d="M0 0 C1.65 0.33 3.3 0.66 5 1 C5 1.66 5 2.32 5 3 C6.65 3 8.3 3 10 3 C10 3.66 10 4.32 10 5 C7.09399739 6.25664978 5.20395416 7 2 7 C2 6.34 2 5.68 2 5 C0.02 5.33 -1.96 5.66 -4 6 C-4 5.01 -4 4.02 -4 3 C-2.35 3 -0.7 3 1 3 C0.67 2.01 0.34 1.02 0 0 Z " fill="#0E356F" transform="translate(325,161)"/>
<path d="M0 0 C4.93321834 0.70192085 9.25974682 2.63530775 13.8125 4.5625 C14.60076172 4.89185547 15.38902344 5.22121094 16.20117188 5.56054688 C18.13583796 6.36958906 20.06815753 7.18423852 22 8 C18.78360346 9.74565111 16.67986596 10.204437 13 10 C13.33 8.68 13.66 7.36 14 6 C12.35 6 10.7 6 9 6 C9 5.34 9 4.68 9 4 C8.071875 3.896875 7.14375 3.79375 6.1875 3.6875 C2.96745642 2.9929808 1.97420135 2.52259061 0 0 Z " fill="#4B678E" transform="translate(321,158)"/>
<path d="M0 0 C0 1.65 0 3.3 0 5 C-1.28650706 5.69710731 -2.57940665 6.38242876 -3.875 7.0625 C-4.95394531 7.63677734 -4.95394531 7.63677734 -6.0546875 8.22265625 C-6.69664062 8.47917969 -7.33859375 8.73570312 -8 9 C-8.66 8.67 -9.32 8.34 -10 8 C-9.67 6.68 -9.34 5.36 -9 4 C-8.34 4 -7.68 4 -7 4 C-7 3.34 -7 2.68 -7 2 C-4.35261084 0.5393715 -3.10551666 0 0 0 Z " fill="#17418C" transform="translate(370,196)"/>
<path d="M0 0 C0.66 0 1.32 0 2 0 C2.09945415 6.11090483 2.0712828 11.97403427 1 18 C-1.64 18.66 -4.28 19.32 -7 20 C-6.1875 18.0625 -6.1875 18.0625 -5 16 C-4.01 15.67 -3.02 15.34 -2 15 C0.34551123 10.06208162 0.2134222 5.33555495 0 0 Z " fill="#EB9E5B" transform="translate(264,173)"/>
<path d="M0 0 C5.31975997 0.2533219 5.31975997 0.2533219 8 1 C9.5 3.0625 9.5 3.0625 10 5 C3.25 7 3.25 7 1 7 C0.34 5.02 -0.32 3.04 -1 1 C-0.67 0.67 -0.34 0.34 0 0 Z " fill="#0C539F" transform="translate(356,164)"/>
<path d="M0 0 C1.010625 0.66 2.02125 1.32 3.0625 2 C2.7325 3.32 2.4025 4.64 2.0625 6 C1.44375 5.360625 0.825 4.72125 0.1875 4.0625 C-1.76347612 1.96116416 -1.76347612 1.96116416 -3.9375 1 C-8.86981984 1.12597281 -13.46775787 1.83722155 -17.9375 4 C-17.9375 2.68 -17.9375 1.36 -17.9375 0 C-11.5984348 -2.06989884 -6.11474947 -3.46953592 0 0 Z " fill="#EEB666" transform="translate(260.9375,167)"/>
<path d="M0 0 C0 2.97 0 5.94 0 9 C-1.98 9 -3.96 9 -6 9 C-6 6.69 -6 4.38 -6 2 C-1.125 0 -1.125 0 0 0 Z " fill="#0D2564" transform="translate(220,210)"/>
<path d="M0 0 C6.33393082 -0.34548714 11.10261508 0.70657253 17 3 C13.38132441 4.2062252 10.07493749 4.10816918 6.3125 4.0625 C5.61060547 4.05798828 4.90871094 4.05347656 4.18554688 4.04882812 C2.45699462 4.03706927 0.72848635 4.01913454 -1 4 C-0.67 2.68 -0.34 1.36 0 0 Z " fill="#3398D4" transform="translate(296,182)"/>
<path d="M0 0 C-2.5654594 2.5654594 -4.47686668 2.54046087 -8 3 C-8 3.66 -8 4.32 -8 5 C-4.7 5 -1.4 5 2 5 C2 5.33 2 5.66 2 6 C-3.61 6 -9.22 6 -15 6 C-15 5.34 -15 4.68 -15 4 C-12.87875034 3.13656176 -10.75286928 2.28449352 -8.625 1.4375 C-6.84996094 0.72400391 -6.84996094 0.72400391 -5.0390625 -0.00390625 C-2 -1 -2 -1 0 0 Z " fill="#78A7C8" transform="translate(184,171)"/>
<path d="M0 0 C-1.44245971 3.36573933 -3.083468 5.75010389 -6 8 C-8.75 7.75 -8.75 7.75 -11 7 C-10.01 6.34 -9.02 5.68 -8 5 C-8 4.34 -8 3.68 -8 3 C-8.99 2.67 -9.98 2.34 -11 2 C-7.12315913 0.80712589 -4.08378077 0 0 0 Z " fill="#4292C3" transform="translate(230,156)"/>
<path d="M0 0 C0.66 0 1.32 0 2 0 C2 0.66 2 1.32 2 2 C2.9075 1.95875 3.815 1.9175 4.75 1.875 C7.8782046 1.99531556 9.38614006 2.3914708 12 4 C10.68 4.33 9.36 4.66 8 5 C8 5.66 8 6.32 8 7 C6.02 7 4.04 7 2 7 C1.34 4.69 0.68 2.38 0 0 Z " fill="#0D2757" transform="translate(287,166)"/>
<path d="M0 0 C0.33 1.32 0.66 2.64 1 4 C-3.62 4 -8.24 4 -13 4 C-10.43098463 -1.13803073 -4.96480575 -0.16549352 0 0 Z " fill="#0E286D" transform="translate(223,223)"/>
<path d="M0 0 C6.27 0 12.54 0 19 0 C19 0.33 19 0.66 19 1 C17.69675781 1.18175781 17.69675781 1.18175781 16.3671875 1.3671875 C15.21476562 1.53476563 14.06234375 1.70234375 12.875 1.875 C11.73804688 2.03742188 10.60109375 2.19984375 9.4296875 2.3671875 C6.13921085 2.97431417 3.14220897 3.86345633 0 5 C0 3.35 0 1.7 0 0 Z " fill="#537BB3" transform="translate(375,191)"/>
<path d="M0 0 C3.96 1.98 7.92 3.96 12 6 C12 6.66 12 7.32 12 8 C8.04 7.67 4.08 7.34 0 7 C0.66 6.34 1.32 5.68 2 5 C1.34 4.34 0.68 3.68 0 3 C0 2.01 0 1.02 0 0 Z " fill="#424F71" transform="translate(344,167)"/>
<path d="M0 0 C0.66 0.33 1.32 0.66 2 1 C1.1875 3.4375 1.1875 3.4375 0 6 C-0.99 6.33 -1.98 6.66 -3 7 C-3.33 7.99 -3.66 8.98 -4 10 C-4.66 10 -5.32 10 -6 10 C-6 11.32 -6 12.64 -6 14 C-8 15.75 -8 15.75 -10 17 C-9.60791281 11.64147506 -7.6642613 7.85831875 -4 4 C-3.34 4 -2.68 4 -2 4 C-1.34 2.68 -0.68 1.36 0 0 Z " fill="#E8BD78" transform="translate(233,157)"/>
<path d="M0 0 C2.27057377 -0.05398987 4.54151288 -0.09278742 6.8125 -0.125 C8.07707031 -0.14820313 9.34164063 -0.17140625 10.64453125 -0.1953125 C14 0 14 0 17 2 C12.14756634 3.61747789 9.00725283 4.05415849 4 3 C3.01 3.33 2.02 3.66 1 4 C0.67 2.68 0.34 1.36 0 0 Z " fill="#4E6190" transform="translate(441,216)"/>
<path d="M0 0 C2 0 2 0 4.625 2.4375 C7.82060585 6.34532299 7.48279288 10.17207121 7 15 C6.34 15 5.68 15 5 15 C4.34 11.37 3.68 7.74 3 4 C2.01 4 1.02 4 0 4 C0 2.68 0 1.36 0 0 Z " fill="#5874A1" transform="translate(464,196)"/>
<path d="M0 0 C4.01636782 0.22734157 6.32292551 0.42709081 9.4375 3.0625 C10.2109375 4.0215625 10.2109375 4.0215625 11 5 C10.01 5.33 9.02 5.66 8 6 C7.67 5.01 7.34 4.02 7 3 C6.13375 3.185625 5.2675 3.37125 4.375 3.5625 C0.90607821 4.01217505 -1.61890633 3.84527342 -5 3 C-5.66 2.34 -6.32 1.68 -7 1 C-5.5459375 1.0309375 -5.5459375 1.0309375 -4.0625 1.0625 C-1.12534105 1.35618499 -1.12534105 1.35618499 0 0 Z " fill="#2973B5" transform="translate(409,187)"/>
<path d="M0 0 C1.2065625 0.0309375 1.2065625 0.0309375 2.4375 0.0625 C2.125 2.9375 2.125 2.9375 1.4375 6.0625 C0.4475 6.7225 -0.5425 7.3825 -1.5625 8.0625 C-3.125 6.8125 -3.125 6.8125 -4.5625 5.0625 C-4.13825523 1.45641945 -3.76992241 0.09194933 0 0 Z " fill="#223666" transform="translate(405.5625,219.9375)"/>
<path d="M0 0 C0.66 0 1.32 0 2 0 C0.63312778 3.98671063 -1.15195093 6.88494633 -4 10 C-4.66 10 -5.32 10 -6 10 C-6.33 8.68 -6.66 7.36 -7 6 C-6.01 5.34 -5.02 4.68 -4 4 C-4.66 4 -5.32 4 -6 4 C-5.67 3.01 -5.34 2.02 -5 1 C-3.35 1.33 -1.7 1.66 0 2 C0 1.34 0 0.68 0 0 Z " fill="#E47A48" transform="translate(265,210)"/>
<path d="M0 0 C3.34249629 0.59687434 5.46436342 1.73603877 8 4 C8 4.66 8 5.32 8 6 C6.02 6.99 6.02 6.99 4 8 C3.67 7.34 3.34 6.68 3 6 C0.47266765 5.34444881 0.47266765 5.34444881 -2 5 C-2 4.01 -2 3.02 -2 2 C-1.34 2 -0.68 2 0 2 C0 1.34 0 0.68 0 0 Z " fill="#0C4B90" transform="translate(378,200)"/>
<path d="M0 0 C1.22589844 0.01353516 1.22589844 0.01353516 2.4765625 0.02734375 C3.41628906 0.04474609 3.41628906 0.04474609 4.375 0.0625 C4.705 1.0525 5.035 2.0425 5.375 3.0625 C-0.565 3.5575 -0.565 3.5575 -6.625 4.0625 C-6.625 3.0725 -6.625 2.0825 -6.625 1.0625 C-4.21954362 -0.14022819 -2.67503047 -0.03821472 0 0 Z " fill="#258EC6" transform="translate(310.625,148.9375)"/>
<path d="M0 0 C0.84755859 0.00322266 1.69511719 0.00644531 2.56835938 0.00976562 C3.8899707 0.02233398 3.8899707 0.02233398 5.23828125 0.03515625 C6.57729492 0.04192383 6.57729492 0.04192383 7.94335938 0.04882812 C10.14590112 0.06060642 12.34830724 0.07705461 14.55078125 0.09765625 C14.55078125 0.42765625 14.55078125 0.75765625 14.55078125 1.09765625 C11.63540684 1.48757258 8.7195679 1.86004625 5.80078125 2.22265625 C4.97578125 2.33480469 4.15078125 2.44695312 3.30078125 2.5625 C2.5015625 2.65917969 1.70234375 2.75585938 0.87890625 2.85546875 C0.14575195 2.94973145 -0.58740234 3.04399414 -1.34277344 3.14111328 C-3.84395722 3.0895126 -5.31227248 2.3519508 -7.44921875 1.09765625 C-4.6251011 0.1562837 -2.92003843 -0.01959757 0 0 Z " fill="#344B8F" transform="translate(151.44921875,225.90234375)"/>
<path d="M0 0 C6.44234079 3.72977625 6.44234079 3.72977625 8.125 7.5625 C9.20163934 11.79215454 9.17345246 15.66368851 9 20 C8.67 20 8.34 20 8 20 C8 17.36 8 14.72 8 12 C7.34 12 6.68 12 6 12 C5.7525 11.0925 5.505 10.185 5.25 9.25 C3.95087424 5.87227303 2.59801015 4.42480947 0 2 C0 1.34 0 0.68 0 0 Z " fill="#5D759B" transform="translate(401,199)"/>
<path d="M0 0 C1.32 0.33 2.64 0.66 4 1 C0.64516129 7.47004608 0.64516129 7.47004608 -1.75 9.4375 C-5.2009389 10.30023473 -8.44848426 10.11838386 -12 10 C-12 9.67 -12 9.34 -12 9 C-10.4221875 8.9071875 -10.4221875 8.9071875 -8.8125 8.8125 C-4.33338575 7.85793467 -2.79679384 6.5595558 0 3 C0 2.01 0 1.02 0 0 Z " fill="#79A8CD" transform="translate(206,168)"/>
<path d="M0 0 C1.65 0 3.3 0 5 0 C5.33 0.99 5.66 1.98 6 3 C4.59554165 5.2636564 2.8032087 7.0208685 1 9 C-1.7839183 7.60804085 -1.97898997 5.84424221 -3 3 C-2.01 3 -1.02 3 0 3 C0.99 2.67 1.98 2.34 3 2 C2.01 1.34 1.02 0.68 0 0 Z " fill="#5A678A" transform="translate(463,215)"/>
<path d="M0 0 C2.84142026 0.56828405 3.80618236 1.18214428 5.5 3.5 C5.5 4.16 5.5 4.82 5.5 5.5 C1.87 5.5 -1.76 5.5 -5.5 5.5 C-3.19060773 0.63812155 -3.19060773 0.63812155 0 0 Z " fill="#243B76" transform="translate(462.5,207.5)"/>
<path d="M0 0 C1.32 0.33 2.64 0.66 4 1 C3.54625 1.474375 3.0925 1.94875 2.625 2.4375 C0.3298066 6.05684343 -0.24134665 9.8229439 -1 14 C-1.66 13.01 -2.32 12.02 -3 11 C-3.66 11.66 -4.32 12.32 -5 13 C-4.32116957 9.88452559 -3.25893098 7.14862279 -1.9375 4.25 C-1.57527344 3.45078125 -1.21304687 2.6515625 -0.83984375 1.828125 C-0.56269531 1.22484375 -0.28554688 0.6215625 0 0 Z " fill="#465D92" transform="translate(365,202)"/>
<path d="M0 0 C0.99 0 1.98 0 3 0 C2.67 1.98 2.34 3.96 2 6 C-0.97 6.66 -3.94 7.32 -7 8 C-7 7.34 -7 6.68 -7 6 C-6.34 5.67 -5.68 5.34 -5 5 C-5 4.34 -5 3.68 -5 3 C-4.360625 2.87625 -3.72125 2.7525 -3.0625 2.625 C-2.0415625 2.315625 -2.0415625 2.315625 -1 2 C-0.67 1.34 -0.34 0.68 0 0 Z " fill="#126DAB" transform="translate(211,161)"/>
<path d="M0 0 C0.66 0.33 1.32 0.66 2 1 C2 2.98 2 4.96 2 7 C4.97 7 7.94 7 11 7 C11 7.33 11 7.66 11 8 C7.37 8 3.74 8 0 8 C0 7.34 0 6.68 0 6 C-0.99 6 -1.98 6 -3 6 C-2.42655063 3.13275314 -2.1385485 2.1385485 0 0 Z " fill="#0D3485" transform="translate(285,202)"/>
<path d="M0 0 C0.639375 0.804375 1.27875 1.60875 1.9375 2.4375 C6.33854543 6.1200074 10.44654314 6 16 6 C16 6.66 16 7.32 16 8 C7.32352941 9.47058824 7.32352941 9.47058824 3 7 C1.1875 5.625 1.1875 5.625 0 4 C0 2.68 0 1.36 0 0 Z " fill="#E89E60" transform="translate(239,186)"/>
<path d="M0 0 C2.31 0.66 4.62 1.32 7 2 C7 2.66 7 3.32 7 4 C1.39 4 -4.22 4 -10 4 C-10 3.67 -10 3.34 -10 3 C-9.36191406 2.95101562 -8.72382813 2.90203125 -8.06640625 2.8515625 C-7.24011719 2.77679688 -6.41382813 2.70203125 -5.5625 2.625 C-4.73878906 2.55539063 -3.91507813 2.48578125 -3.06640625 2.4140625 C-2.38449219 2.27742187 -1.70257813 2.14078125 -1 2 C-0.67 1.34 -0.34 0.68 0 0 Z " fill="#7E8AA8" transform="translate(224,224)"/>
<path d="M0 0 C0.66 0 1.32 0 2 0 C2 0.66 2 1.32 2 2 C2.99 2 3.98 2 5 2 C5.12375 2.639375 5.2475 3.27875 5.375 3.9375 C5.684375 4.9584375 5.684375 4.9584375 6 6 C6.66 6.33 7.32 6.66 8 7 C7.34 8.32 6.68 9.64 6 11 C4.99126984 9.73608512 3.99328178 8.46359117 3 7.1875 C2.443125 6.47980469 1.88625 5.77210938 1.3125 5.04296875 C0 3 0 3 0 0 Z " fill="#DD7143" transform="translate(235,217)"/>
<path d="M0 0 C0.33 1.32 0.66 2.64 1 4 C0.01 4.495 0.01 4.495 -1 5 C-1.72904086 6.64034193 -2.38655243 8.31301918 -3 10 C-4 12.5 -4 12.5 -5 15 C-5.99 14.67 -6.98 14.34 -8 14 C-6.6744419 10.37723685 -5.05653045 7.36494652 -2.875 4.1875 C-2.33617187 3.39730469 -1.79734375 2.60710937 -1.2421875 1.79296875 C-0.83226562 1.20128906 -0.42234375 0.60960937 0 0 Z " fill="#566E97" transform="translate(282,197)"/>
<path d="M0 0 C0.2475 0.598125 0.495 1.19625 0.75 1.8125 C2.16444091 4.28777159 3.72860188 5.33430804 6 7 C6 7.66 6 8.32 6 9 C5.34 9 4.68 9 4 9 C3.67 9.66 3.34 10.32 3 11 C2.38125 10.21625 1.7625 9.4325 1.125 8.625 C-0.89858661 6.03162353 -0.89858661 6.03162353 -3 4 C-2.34 4 -1.68 4 -1 4 C-0.67 2.68 -0.34 1.36 0 0 Z " fill="#315D9A" transform="translate(408,192)"/>
<path d="M0 0 C0.33 0.66 0.66 1.32 1 2 C-5.51244208 2.69508823 -11.5510809 3.31909709 -18 2 C-18 1.67 -18 1.34 -18 1 C-11.96445452 0.30739642 -6.07593562 -0.11251733 0 0 Z " fill="#677CAE" transform="translate(177,224)"/>
<path d="M0 0 C0.90105469 0.02707031 1.80210937 0.05414063 2.73046875 0.08203125 C3.76107422 0.13423828 3.76107422 0.13423828 4.8125 0.1875 C3.12070672 2.22969706 2.17522334 3.10543306 -0.44921875 3.69921875 C-1.24972656 3.75722656 -2.05023438 3.81523437 -2.875 3.875 C-4.08736328 3.97361328 -4.08736328 3.97361328 -5.32421875 4.07421875 C-5.93910156 4.11160156 -6.55398437 4.14898437 -7.1875 4.1875 C-7.1875 5.8375 -7.1875 7.4875 -7.1875 9.1875 C-7.5175 9.1875 -7.8475 9.1875 -8.1875 9.1875 C-8.55288462 3.70673077 -8.55288462 3.70673077 -7 1.5 C-4.56175415 -0.26562631 -2.97705493 -0.11598915 0 0 Z " fill="#5E81B5" transform="translate(185.1875,197.8125)"/>
<path d="M0 0 C2.97 0.495 2.97 0.495 6 1 C6.33 2.32 6.66 3.64 7 5 C6.34 5 5.68 5 5 5 C5 5.66 5 6.32 5 7 C4.01 6.67 3.02 6.34 2 6 C0.8125 2.9375 0.8125 2.9375 0 0 Z " fill="#07439C" transform="translate(452,192)"/>
<path d="M0 0 C3.3 0 6.6 0 10 0 C10.33 0.66 10.66 1.32 11 2 C10.01 2 9.02 2 8 2 C8 2.66 8 3.32 8 4 C5.69 3.67 3.38 3.34 1 3 C0.67 2.01 0.34 1.02 0 0 Z " fill="#086BB4" transform="translate(336,157)"/>
<path d="M0 0 C0 0.66 0 1.32 0 2 C-3.12180401 2.96661363 -5.52083795 2.98988909 -8.75 2.5625 C-9.94882812 2.40974609 -9.94882812 2.40974609 -11.171875 2.25390625 C-11.77515625 2.17011719 -12.3784375 2.08632812 -13 2 C-12.67 1.34 -12.34 0.68 -12 0 C-3.89667897 -1.46125461 -3.89667897 -1.46125461 0 0 Z " fill="#101F4B" transform="translate(445,224)"/>
<path d="M0 0 C2.31 0 4.62 0 7 0 C7.33 0.66 7.66 1.32 8 2 C7.67 2.66 7.34 3.32 7 4 C5.56163249 3.88541307 4.12429034 3.75790884 2.6875 3.625 C1.88699219 3.55539063 1.08648437 3.48578125 0.26171875 3.4140625 C-2 3 -2 3 -5 1 C-3.35 1 -1.7 1 0 1 C0 0.67 0 0.34 0 0 Z " fill="#367AB7" transform="translate(371,174)"/>
<path d="M0 0 C1.1875 2.5625 1.1875 2.5625 2 5 C-2.455 4.01 -2.455 4.01 -7 3 C-6.67 2.01 -6.34 1.02 -6 0 C-3 -1 -3 -1 0 0 Z " fill="#1A3F82" transform="translate(220,200)"/>
<path d="M0 0 C4.86896303 0.59619955 9.32790951 1.56976822 14 3 C14 3.33 14 3.66 14 4 C10.7 4 7.4 4 4 4 C4 4.99 4 5.98 4 7 C3.34 6.34 2.68 5.68 2 5 C2 4.01 2 3.02 2 2 C1.34 1.34 0.68 0.68 0 0 Z " fill="#3789C5" transform="translate(408,182)"/>
<path d="M0 0 C5.41798672 0.69165788 10.6822785 1.75799248 16 3 C16 3.33 16 3.66 16 4 C10.26157749 4.20413361 5.39460953 4.27141454 0 2 C0 1.34 0 0.68 0 0 Z " fill="#5585B5" transform="translate(421,177)"/>
<path d="M0 0 C1.09898702 3.29696105 0.87124444 4.40494903 0.0625 7.6875 C-0.22947266 8.89986328 -0.22947266 8.89986328 -0.52734375 10.13671875 C-0.68332031 10.75160156 -0.83929688 11.36648437 -1 12 C-1.66 12 -2.32 12 -3 12 C-3 8.37 -3 4.74 -3 1 C-2.01 0.67 -1.02 0.34 0 0 Z " fill="#3F75A5" transform="translate(218,172)"/>
<path d="M0 0 C0.33 0.66 0.66 1.32 1 2 C-5.11485027 2.09706112 -10.93303301 1.77040851 -17 1 C-17 0.67 -17 0.34 -17 0 C-14.9174133 -0.19561869 -12.83388144 -0.38119313 -10.75 -0.5625 C-9.58984375 -0.66691406 -8.4296875 -0.77132812 -7.234375 -0.87890625 C-4.47594249 -0.9821809 -2.54490828 -1.01190401 0 0 Z " fill="#0E2153" transform="translate(354,221)"/>
<path d="M0 0 C1.175625 0.433125 1.175625 0.433125 2.375 0.875 C6.8622758 2.26760284 11.385279 3.14271981 16 4 C13.462474 5.65752886 12.29410938 6.03785566 9.23828125 5.64453125 C8.27277344 5.36996094 7.30726563 5.09539062 6.3125 4.8125 C5.33925781 4.55082031 4.36601562 4.28914062 3.36328125 4.01953125 C2.58339844 3.68308594 1.80351562 3.34664062 1 3 C0.67 2.01 0.34 1.02 0 0 Z " fill="#5E85B7" transform="translate(420,192)"/>
<path d="M0 0 C0.66 0.66 1.32 1.32 2 2 C2.66 2 3.32 2 4 2 C4 2.66 4 3.32 4 4 C2.56344146 4.08131463 1.1255517 4.13933559 -0.3125 4.1875 C-1.51326172 4.23970703 -1.51326172 4.23970703 -2.73828125 4.29296875 C-5.47851584 3.93801608 -6.29171079 3.10633718 -8 1 C-5.23749964 -0.38125018 -3.05268901 -0.19079306 0 0 Z " fill="#0B59AA" transform="translate(416,190)"/>
<path d="M0 0 C1 2 1 2 0.0625 5.125 C-0.288125 6.07375 -0.63875 7.0225 -1 8 C-2.65 8 -4.3 8 -6 8 C-4.6875 4.5625 -4.6875 4.5625 -3 1 C-2.01 0.67 -1.02 0.34 0 0 Z " fill="#0C589A" transform="translate(219,166)"/>
<path d="M0 0 C0.66 0.33 1.32 0.66 2 1 C2 1.66 2 2.32 2 3 C2.99 2.67 3.98 2.34 5 2 C7.33299825 1.96045766 9.66708189 1.95598268 12 2 C12 2.66 12 3.32 12 4 C6.06 4.495 6.06 4.495 0 5 C-0.33 3.68 -0.66 2.36 -1 1 C-0.67 0.67 -0.34 0.34 0 0 Z " fill="#122251" transform="translate(372,223)"/>
<path d="M0 0 C3.3 0.99 6.6 1.98 10 3 C10 3.33 10 3.66 10 4 C6.04 4 2.08 4 -2 4 C-1.34 2.68 -0.68 1.36 0 0 Z " fill="#283868" transform="translate(273,211)"/>
<path d="M0 0 C1.9375 0.375 1.9375 0.375 4 1 C4.33 1.66 4.66 2.32 5 3 C2 5 2 5 -0.5625 4.6875 C-3 4 -3 4 -5 3 C-5 2.34 -5 1.68 -5 1 C-2.525 1.495 -2.525 1.495 0 2 C0 1.34 0 0.68 0 0 Z " fill="#074F9E" transform="translate(372,171)"/>
<path d="M0 0 C-0.73669922 0.58201172 -0.73669922 0.58201172 -1.48828125 1.17578125 C-3.50725753 3.61211696 -3.30898805 5.06930672 -3.1875 8.1875 C-3.16042969 9.08855469 -3.13335937 9.98960937 -3.10546875 10.91796875 C-3.07066406 11.60503906 -3.03585937 12.29210937 -3 13 C-3.33 13 -3.66 13 -4 13 C-4 10.03 -4 7.06 -4 4 C-4.66 4 -5.32 4 -6 4 C-6 2.68 -6 1.36 -6 0 C-3.50907189 -1.24546405 -2.58919267 -0.7767578 0 0 Z " fill="#F1922A" transform="translate(270,169)"/>
<path d="M0 0 C-0.33 0.99 -0.66 1.98 -1 3 C-2.99609375 3.80078125 -2.99609375 3.80078125 -5.4375 4.3125 C-6.24058594 4.49425781 -7.04367188 4.67601562 -7.87109375 4.86328125 C-8.92490234 4.93095703 -8.92490234 4.93095703 -10 5 C-10.66 4.34 -11.32 3.68 -12 3 C-10.56445975 2.49440092 -9.1264798 1.9957251 -7.6875 1.5 C-6.88699219 1.2215625 -6.08648437 0.943125 -5.26171875 0.65625 C-3 0 -3 0 0 0 Z " fill="#4D98C6" transform="translate(211,161)"/>
<path d="M0 0 C-0.33 0.99 -0.66 1.98 -1 3 C-1.99 3 -2.98 3 -4 3 C-4.33 3.66 -4.66 4.32 -5 5 C-5.33 4.01 -5.66 3.02 -6 2 C-6.99 2.33 -7.98 2.66 -9 3 C-9.33 2.34 -9.66 1.68 -10 1 C-6.61981469 -0.04005702 -3.5219721 -0.08004482 0 0 Z " fill="#1762C0" transform="translate(310,185)"/>
<path d="M0 0 C0.66 0 1.32 0 2 0 C1.67 4.29 1.34 8.58 1 13 C0.34 12.67 -0.32 12.34 -1 12 C-1.02712066 10.56260487 -1.04645067 9.12506137 -1.0625 7.6875 C-1.07410156 6.88699219 -1.08570313 6.08648437 -1.09765625 5.26171875 C-1 3 -1 3 0 0 Z " fill="#ECB062" transform="translate(238,173)"/>
<path d="M0 0 C3.63 0 7.26 0 11 0 C11 0.66 11 1.32 11 2 C5.04296875 3.07421875 5.04296875 3.07421875 3 3 C2.01 2.01 1.02 1.02 0 0 Z " fill="#08549D" transform="translate(410,177)"/>
<path d="M0 0 C5.63281599 -0.2396943 10.54538831 0.61470179 16 2 C13.33874255 3.79570284 12.21888938 4.03345719 8.984375 3.5390625 C7.38335937 3.08660156 7.38335937 3.08660156 5.75 2.625 C4.67234375 2.32851562 3.5946875 2.03203125 2.484375 1.7265625 C1.66453125 1.48679688 0.8446875 1.24703125 0 1 C0 0.67 0 0.34 0 0 Z " fill="#3D8CBE" transform="translate(314,153)"/>
<path d="M0 0 C0 0.33 0 0.66 0 1 C-1.98 1.33 -3.96 1.66 -6 2 C-6 2.33 -6 2.66 -6 3 C-8.64 3 -11.28 3 -14 3 C-14 2.67 -14 2.34 -14 2 C-12.02 2 -10.04 2 -8 2 C-8.33 1.01 -8.66 0.02 -9 -1 C-5.79937313 -2.60031344 -3.27728194 -1.03173691 0 0 Z " fill="#1978B2" transform="translate(324,150)"/>
<path d="M0 0 C0.99 0.33 1.98 0.66 3 1 C3 1.66 3 2.32 3 3 C-0.96 3 -4.92 3 -9 3 C-8.67 2.34 -8.34 1.68 -8 1 C-6.865625 1.020625 -5.73125 1.04125 -4.5625 1.0625 C-1.18424326 1.41577477 -1.18424326 1.41577477 0 0 Z " fill="#09215F" transform="translate(210,216)"/>
<path d="M0 0 C0 0.66 0 1.32 0 2 C-3.82320557 3.42258812 -6.91281305 4.24042276 -11 4 C-7.35237315 0.18657193 -5.28949249 -0.11498897 0 0 Z " fill="#0D317B" transform="translate(350,208)"/>
<path d="M0 0 C3.3 0.33 6.6 0.66 10 1 C7 4 7 4 4.3125 4.1875 C3.1678125 4.0946875 3.1678125 4.0946875 2 4 C2 3.34 2 2.68 2 2 C1.34 1.34 0.68 0.68 0 0 Z " fill="#3E6C9C" transform="translate(311,156)"/>
<path d="M0 0 C0.66 0.33 1.32 0.66 2 1 C1.67 1.66 1.34 2.32 1 3 C1.99 3.33 2.98 3.66 4 4 C4 4.99 4 5.98 4 7 C3.01 7 2.02 7 1 7 C1 6.34 1 5.68 1 5 C0.01 4.67 -0.98 4.34 -2 4 C-1.34 2.68 -0.68 1.36 0 0 Z " fill="#EB571A" transform="translate(245,224)"/>
<path d="M0 0 C0.99 0.33 1.98 0.66 3 1 C2.01 2.485 2.01 2.485 1 4 C0.5359375 5.051875 0.5359375 5.051875 0.0625 6.125 C-1 8 -1 8 -4 9 C-4 8.01 -4 7.02 -4 6 C-3.34 6 -2.68 6 -2 6 C-1.855625 5.195625 -1.71125 4.39125 -1.5625 3.5625 C-1 1 -1 1 0 0 Z " fill="#113E86" transform="translate(285,195)"/>
<path d="M0 0 C0.66 0.33 1.32 0.66 2 1 C2.625 4.0625 2.625 4.0625 3 7 C0.37812506 5.95125002 -0.79371361 5.35068687 -2.25 2.875 C-2.4975 2.25625 -2.745 1.6375 -3 1 C-2.01 0.67 -1.02 0.34 0 0 Z " fill="#17377D" transform="translate(467,205)"/>
<path d="M0 0 C0.80824219 0.11085937 1.61648438 0.22171875 2.44921875 0.3359375 C3.37154297 0.47902344 3.37154297 0.47902344 4.3125 0.625 C4.3125 1.285 4.3125 1.945 4.3125 2.625 C0.3525 2.295 -3.6075 1.965 -7.6875 1.625 C-4.33422361 -0.61051759 -3.78006343 -0.54783528 0 0 Z " fill="#194F92" transform="translate(394.6875,189.375)"/>
<path d="M0 0 C2.97 0.495 2.97 0.495 6 1 C5.01 1.33 4.02 1.66 3 2 C2.26676204 4.01508358 2.26676204 4.01508358 2 6 C1.67 5.34 1.34 4.68 1 4 C-1.52733235 3.34444881 -1.52733235 3.34444881 -4 3 C-3.34 2.67 -2.68 2.34 -2 2 C-1.34 2.33 -0.68 2.66 0 3 C0 2.01 0 1.02 0 0 Z " fill="#659BCC" transform="translate(213,165)"/>
<path d="M0 0 C-3.42346555 3.14958831 -6.44262737 3.56179109 -11 4 C-7.95841042 -0.56238437 -5.1474794 -0.11438843 0 0 Z " fill="#F4C56F" transform="translate(248,152)"/>
<path d="M0 0 C0.66 0.33 1.32 0.66 2 1 C1.67 1.66 1.34 2.32 1 3 C1.66 3.33 2.32 3.66 3 4 C1.68 4.99 0.36 5.98 -1 7 C-1.66 6.67 -2.32 6.34 -3 6 C-2.67 4.68 -2.34 3.36 -2 2 C-1.34 2 -0.68 2 0 2 C0 1.34 0 0.68 0 0 Z " fill="#0B3A8E" transform="translate(363,198)"/>
<path d="M0 0 C0.33 0.66 0.66 1.32 1 2 C0.67 2.66 0.34 3.32 0 4 C-3.63 4 -7.26 4 -11 4 C-10.67 3.34 -10.34 2.68 -10 2 C-9.0925 2.04125 -8.185 2.0825 -7.25 2.125 C-4.1217954 2.00468444 -2.61385994 1.6085292 0 0 Z " fill="#0D4D95" transform="translate(191,194)"/>
<path d="M0 0 C1.32 0.33 2.64 0.66 4 1 C3.2884375 1.8353125 3.2884375 1.8353125 2.5625 2.6875 C0.87604004 5.18346074 0.41046893 7.0446237 0 10 C-0.66 9.67 -1.32 9.34 -2 9 C-1.41196203 5.97580475 -0.77321882 2.98241547 0 0 Z " fill="#3C84B7" transform="translate(289,179)"/>
<path d="M0 0 C0.66 0 1.32 0 2 0 C2 0.99 2 1.98 2 3 C2.66 3 3.32 3 4 3 C4.33 3.66 4.66 4.32 5 5 C5.99 5 6.98 5 8 5 C8 5.66 8 6.32 8 7 C6.02 7 4.04 7 2 7 C1.34 4.69 0.68 2.38 0 0 Z " fill="#102148" transform="translate(287,166)"/>
<path d="M0 0 C5.4611399 0.35233161 5.4611399 0.35233161 8 1 C9.5 3.0625 9.5 3.0625 10 5 C6.08788267 3.84414715 3.1254959 2.64465038 0 0 Z " fill="#3D74AB" transform="translate(347,165)"/>
<path d="M0 0 C2.0245738 1.93254772 3.42105792 3.63158688 5 6 C4.67 6.99 4.34 7.98 4 9 C4 8.34 4 7.68 4 7 C3.34 7 2.68 7 2 7 C2 6.34 2 5.68 2 5 C0.68 5 -0.64 5 -2 5 C-1.34 3.35 -0.68 1.7 0 0 Z " fill="#F2BA69" transform="translate(277,160)"/>
<path d="M0 0 C1.051875 0.433125 1.051875 0.433125 2.125 0.875 C5.05452503 2.02133588 8.00921653 3.02625654 11 4 C8 6 8 6 6 6 C6 5.34 6 4.68 6 4 C4.35 3.67 2.7 3.34 1 3 C0.67 2.01 0.34 1.02 0 0 Z " fill="#5D94C0" transform="translate(346,157)"/>
<path d="M0 0 C-1.36983503 3.16115776 -1.9890638 3.9927092 -5 6 C-5.33 4.35 -5.66 2.7 -6 1 C-4 0 -4 0 0 0 Z " fill="#5F92B5" transform="translate(230,156)"/>
<path d="M0 0 C0.99 0 1.98 0 3 0 C2 3 2 3 1 4 C0.63837971 5.32594105 0.30271961 6.65938457 0 8 C-0.66 7.67 -1.32 7.34 -2 7 C-1.125 1.125 -1.125 1.125 0 0 Z " fill="#E55F24" transform="translate(258,214)"/>
<path d="M0 0 C0.66 0.33 1.32 0.66 2 1 C2 1.66 2 2.32 2 3 C2.99 3.33 3.98 3.66 5 4 C4.67 4.99 4.34 5.98 4 7 C3.01 6.67 2.02 6.34 1 6 C1 5.34 1 4.68 1 4 C0.34 4 -0.32 4 -1 4 C-0.67 2.68 -0.34 1.36 0 0 Z " fill="#094A90" transform="translate(401,201)"/>
<path d="M0 0 C0.33 0 0.66 0 1 0 C1.99 3.96 2.98 7.92 4 12 C3.01 11.67 2.02 11.34 1 11 C-0.20272819 8.59454362 -0.10071472 7.05003047 -0.0625 4.375 C-0.05347656 3.55773437 -0.04445312 2.74046875 -0.03515625 1.8984375 C-0.02355469 1.27195313 -0.01195312 0.64546875 0 0 Z " fill="#5A7CA3" transform="translate(216,188)"/>
<path d="M0 0 C1.485 0.99 1.485 0.99 3 2 C3.6875 5.625 3.6875 5.625 4 9 C1.47740939 7.02579865 1.0070192 6.03254358 0.3125 2.8125 C0.209375 1.884375 0.10625 0.95625 0 0 Z " fill="#E28946" transform="translate(223,194)"/>
<path d="M0 0 C-6.4 3.07692308 -6.4 3.07692308 -9.4375 2.6875 C-9.953125 2.460625 -10.46875 2.23375 -11 2 C-3.57142857 -1.57142857 -3.57142857 -1.57142857 0 0 Z " fill="#5099C9" transform="translate(193,179)"/>
<path d="M0 0 C0 1.65 0 3.3 0 5 C-0.33 4.34 -0.66 3.68 -1 3 C-2.98 4.32 -4.96 5.64 -7 7 C-7 6.01 -7 5.02 -7 4 C-6.34 4 -5.68 4 -5 4 C-5 3.34 -5 2.68 -5 2 C-1.125 0 -1.125 0 0 0 Z " fill="#0872BC" transform="translate(211,177)"/>
<path d="M0 0 C2.97 0 5.94 0 9 0 C9 0.66 9 1.32 9 2 C6.69 2 4.38 2 2 2 C2 2.66 2 3.32 2 4 C1.34 3.67 0.68 3.34 0 3 C0 2.01 0 1.02 0 0 Z " fill="#024E9D" transform="translate(378,173)"/>
<path d="M0 0 C3.3 0.33 6.6 0.66 10 1 C10.33 1.99 10.66 2.98 11 4 C7.0507432 3.44894091 3.65079826 2.61064629 0 1 C0 0.67 0 0.34 0 0 Z " fill="#2A75AA" transform="translate(326,156)"/>
<path d="M0 0 C0.66 0.33 1.32 0.66 2 1 C-1.75 6.875 -1.75 6.875 -4 8 C-3.40138258 5.64828869 -2.73075648 3.3140622 -2 1 C-1.34 0.67 -0.68 0.34 0 0 Z " fill="#E0895B" transform="translate(271,202)"/>
<path d="M0 0 C1.1875 1.625 1.1875 1.625 2 4 C0.625 7.25 0.625 7.25 -1 10 C-1.66 9.34 -2.32 8.68 -3 8 C-3 7.01 -3 6.02 -3 5 C-2.01 5 -1.02 5 0 5 C0 3.35 0 1.7 0 0 Z " fill="#E69354" transform="translate(279,186)"/>
<path d="M0 0 C0 1.65 0 3.3 0 5 C-1.65 4.67 -3.3 4.34 -5 4 C-5 3.01 -5 2.02 -5 1 C-1.125 0 -1.125 0 0 0 Z " fill="#0B4796" transform="translate(375,191)"/>
<path d="M0 0 C0.33 1.32 0.66 2.64 1 4 C-2.3 3.34 -5.6 2.68 -9 2 C-5.23312136 0.11656068 -3.97041037 -0.22057835 0 0 Z " fill="#5890BD" transform="translate(441,187)"/>
<path d="M0 0 C0.99 0 1.98 0 3 0 C1.70700306 2.88437779 0.34058637 4.87219421 -2 7 C-2 5.35 -2 3.7 -2 2 C-1.34 2 -0.68 2 0 2 C0 1.34 0 0.68 0 0 Z " fill="#E07D54" transform="translate(255,221)"/>
<path d="M0 0 C3 2 3 2 4 5 C2.35 5.33 0.7 5.66 -1 6 C-0.67 4.02 -0.34 2.04 0 0 Z " fill="#3955A2" transform="translate(180,212)"/>
<path d="M0 0 C0.66 0 1.32 0 2 0 C2 0.66 2 1.32 2 2 C1.34 2 0.68 2 0 2 C0 2.99 0 3.98 0 5 C-1.65 5.66 -3.3 6.32 -5 7 C-3.47793991 4.37098712 -2.15634036 2.15634036 0 0 Z " fill="#5C81AC" transform="translate(376,200)"/>
<path d="M0 0 C3.57104439 1.87949705 5.54744301 3.17053157 7 7 C4.625 6.3125 4.625 6.3125 2 5 C0.6875 2.375 0.6875 2.375 0 0 Z " fill="#5E88B4" transform="translate(401,199)"/>
<path d="M0 0 C2.31 0 4.62 0 7 0 C5 3 5 3 2.875 3.6875 C1.946875 3.8421875 1.946875 3.8421875 1 4 C0.67 2.68 0.34 1.36 0 0 Z " fill="#094B99" transform="translate(440,185)"/>
<path d="M0 0 C0.99 0.99 1.98 1.98 3 3 C2.67 3.99 2.34 4.98 2 6 C1.34 6 0.68 6 0 6 C0 5.34 0 4.68 0 4 C-0.66 4 -1.32 4 -2 4 C-2 3.01 -2 2.02 -2 1 C-1.34 0.67 -0.68 0.34 0 0 Z " fill="#0C2C65" transform="translate(372,217)"/>
<path d="M0 0 C0.66 0 1.32 0 2 0 C2 1.65 2 3.3 2 5 C0.68 5 -0.64 5 -2 5 C-1.125 1.125 -1.125 1.125 0 0 Z " fill="#345C8A" transform="translate(371,207)"/>
<path d="M0 0 C1.32 0 2.64 0 4 0 C4.625 1.8125 4.625 1.8125 5 4 C4.01 5.485 4.01 5.485 3 7 C3 5.68 3 4.36 3 3 C2.01 3 1.02 3 0 3 C0 2.01 0 1.02 0 0 Z " fill="#0C3586" transform="translate(179,204)"/>
<path d="M0 0 C1.98 0.495 1.98 0.495 4 1 C2.515 3.475 2.515 3.475 1 6 C0.34 5.01 -0.32 4.02 -1 3 C-0.67 2.01 -0.34 1.02 0 0 Z " fill="#EC925E" transform="translate(273,196)"/>
<path d="M0 0 C1.98 0.66 3.96 1.32 6 2 C5.01 2.495 5.01 2.495 4 3 C3.67 3.99 3.34 4.98 3 6 C2.34 6 1.68 6 1 6 C0.67 4.02 0.34 2.04 0 0 Z " fill="#466AA0" transform="translate(369,194)"/>
<path d="M0 0 C1.32 0.99 2.64 1.98 4 3 C2.35 3.66 0.7 4.32 -1 5 C-1.66 4.01 -2.32 3.02 -3 2 C-2.01 2 -1.02 2 0 2 C0 1.34 0 0.68 0 0 Z " fill="#1E5CA5" transform="translate(444,187)"/>
<path d="M0 0 C0.33 0 0.66 0 1 0 C1.25 2.3125 1.25 2.3125 1 5 C-1 6.8125 -1 6.8125 -3 8 C-2.25 2.25 -2.25 2.25 0 0 Z " fill="#E9B271" transform="translate(226,166)"/>
<path d="M0 0 C0.99 0 1.98 0 3 0 C2.67 1.65 2.34 3.3 2 5 C1.01 5 0.02 5 -1 5 C-1.33 4.01 -1.66 3.02 -2 2 C-1.34 2 -0.68 2 0 2 C0 1.34 0 0.68 0 0 Z " fill="#2579BD" transform="translate(196,165)"/>
<path d="M0 0 C4.875 2.625 4.875 2.625 6 6 C3 6 3 6 1.3125 4.6875 C0 3 0 3 0 0 Z " fill="#F3CB85" transform="translate(271,154)"/>
<path d="M0 0 C2.31 0 4.62 0 7 0 C6.01 1.485 6.01 1.485 5 3 C2.375 3.1875 2.375 3.1875 0 3 C0 2.01 0 1.02 0 0 Z " fill="#FDC241" transform="translate(252,151)"/>
<path d="" fill="#000000" transform="translate(0,0)"/>
</svg>
